<svg id="Layer_1" data-name="Layer 1" xmlns="http://www.w3.org/2000/svg" viewBox="0 0 85 79"><defs><style>.cls-1{fill:#00d2cb;}.cls-2{fill:#ed1c24;}</style></defs><title>app doc 3</title><path class="cls-1" d="M51.34,13.93c-4.88,4.11-6.77,9.21-5.16,15.41a13.55,13.55,0,0,0,5.16,7.49,14.18,14.18,0,0,0,8.58,2.85,19.26,19.26,0,0,0,2.47,6.24c1.29,2.43,2.61,4.84,3.94,7.25a14.18,14.18,0,0,1,1.58,5.54A4.14,4.14,0,0,1,65.24,63c-8.15,2.7-16.42,4.82-25.09,4.71A67.61,67.61,0,0,1,22.74,64.9c-2-.55-3.91-1.15-5.86-1.76A4.37,4.37,0,0,1,13.76,58a16.78,16.78,0,0,1,2-5.7c1.28-2.34,2.56-4.67,3.83-7,.08-.14.15-.28.22-.42a16.13,16.13,0,0,0,2.09-7.56c.1-3.05.38-6.09.63-9.14.65-7.95,6.72-15.55,14.25-17.81a13.76,13.76,0,0,1,10.68,1c1.23.63,2.36,1.44,3.53,2.17A2.52,2.52,0,0,1,51.34,13.93Z"/><path class="cls-1" d="M47,71.76a6.2,6.2,0,0,1-10.66,4.32,6.25,6.25,0,0,1-1.22-6.81.71.71,0,0,1,.85-.53,51.24,51.24,0,0,0,9.83,0c.34,0,.51.07.6.36l.75,2.63Zm-4,0A2.19,2.19,0,1,0,40.78,74,2.18,2.18,0,0,0,43,71.78Z"/><path class="cls-1" d="M44.37,8.9a15.72,15.72,0,0,0-7.09,0c-1-1.22-.77-3.57.54-4.93a4.16,4.16,0,0,1,5.57-.36A4.11,4.11,0,0,1,44.37,8.9Z"/><path class="cls-2" d="M59.92,12.47a12.93,12.93,0,1,0,12.87,13A13,13,0,0,0,59.92,12.47Z"/></svg>