<?xml version="1.0" encoding="utf-8"?>
<!-- Generator: Adobe Illustrator 24.0.1, SVG Export Plug-In . SVG Version: 6.00 Build 0)  -->
<svg version="1.1" id="Layer_1" xmlns="http://www.w3.org/2000/svg" xmlns:xlink="http://www.w3.org/1999/xlink" x="0px" y="0px"
	 viewBox="0 0 56 78" style="enable-background:new 0 0 56 78;" xml:space="preserve">
<style type="text/css">
	.st0{fill:#00D2CB;}
</style>
<title>app doc</title>
<g>
	<path class="st0" d="M28,77.2c-6.1,0-12.3,0-18.4,0c-4.5,0.1-8.5-3-9.4-7.4C0.1,69,0,68.3,0,67.5c0-7.6,0-15.2,0-22.8
		c-0.1-4.7,3.3-8.8,8-9.5c0.6-0.1,1.2-0.1,1.8-0.1c12.2,0,24.4,0,36.6,0c4.5-0.2,8.6,2.9,9.5,7.4c0.2,0.7,0.2,1.4,0.2,2.1
		c0,7.7,0,15.3,0,23c0.1,4.7-3.3,8.7-8,9.4c-0.7,0.1-1.3,0.1-2,0.1H28z M28,49.1c-2,0-3.7,1.2-4.4,3.1c-0.7,1.9-0.1,4,1.6,5.1
		c0.4,0.2,0.5,0.7,0.5,1.1c0,2.3,0,4.5,0,6.8c-0.1,1.3,0.8,2.4,2.1,2.6c1.3,0.1,2.4-0.8,2.6-2.1c0-0.2,0-0.4,0-0.5
		c0-2.3,0-4.5,0-6.8c0-0.4,0.2-0.9,0.5-1.1c1.6-1.2,2.2-3.3,1.5-5.2C31.7,50.4,29.9,49.1,28,49.1L28,49.1z"/>
	<path class="st0" d="M18.6,33c-0.2,0-0.3,0-0.5,0H9.4c0-0.1-0.1-0.3-0.1-0.4c0-4.1-0.1-8.1,0-12.2C9.6,10.1,18.1,2,28.4,2.2
		c8.8,0.2,16.2,6.5,17.9,15.1c0.2,1.2,0.4,2.4,0.4,3.7c0,3.8,0,7.7,0,11.5c0,0.2,0,0.3,0,0.6h-9.3v-0.9c0-4,0.1-7.9-0.1-11.8
		c-0.4-5.1-4.8-9-9.9-8.6c-4.6,0.3-8.2,4-8.6,8.6c-0.2,3.9-0.1,7.8-0.1,11.7C18.6,32.3,18.6,32.7,18.6,33z"/>
</g>
</svg>
