<svg width="30" height="29" viewBox="0 0 30 29" fill="none" xmlns="http://www.w3.org/2000/svg">
<circle cx="14.9999" cy="14.1064" r="14.1064" fill="#262D70" fill-opacity="0.15"/>
<path d="M22.4205 14.3647C22.3047 14.4797 22.1535 14.5372 22.0022 14.5372C21.8497 14.5372 21.6973 14.4788 21.5813 14.362L21.1121 13.8897V16.0504C21.1121 16.3781 20.8464 16.6438 20.5187 16.6438C20.191 16.6438 19.9253 16.3781 19.9253 16.0504V12.6951L15.4121 8.15218C15.1907 7.96247 14.8646 7.96175 14.6423 8.15055L10.0737 12.7101C10.0739 12.7158 10.0745 12.7214 10.0745 12.7272V19.0175C10.0745 19.6719 10.607 20.2043 11.2614 20.2043H18.7384C19.3929 20.2043 19.9253 19.6719 19.9253 19.0175C19.9253 18.6897 20.191 18.424 20.5187 18.424C20.8464 18.424 21.1121 18.6897 21.1121 19.0175C21.1121 20.3263 20.0473 21.3911 18.7384 21.3911H11.2614C9.95254 21.3911 8.88771 20.3263 8.88771 19.0175V13.8938L8.41678 14.3638C8.18484 14.5953 7.80912 14.5949 7.57757 14.3629C7.34605 14.131 7.34643 13.7553 7.5784 13.5237C7.5784 13.5237 13.834 7.28084 13.8425 7.27333C14.5202 6.66994 15.5404 6.67214 16.2156 7.27834C16.224 7.28588 22.4232 13.5255 22.4232 13.5255C22.6542 13.758 22.653 14.1337 22.4205 14.3647ZM13.3085 16.2431C13.0075 15.8748 12.8265 15.4048 12.8265 14.8932C12.8265 13.7152 13.7849 12.7569 14.9628 12.7569C16.1408 12.7569 17.0991 13.7152 17.0991 14.8932C17.0991 15.4076 16.9163 15.8801 16.6123 16.2492C17.0431 16.4552 17.4391 16.7411 17.7751 17.0966C18.0003 17.3347 17.9897 17.7103 17.7516 17.9354C17.6369 18.0439 17.4903 18.0977 17.344 18.0977C17.1865 18.0977 17.0294 18.0354 16.9127 17.9119C16.4079 17.378 15.6818 17.0592 14.9702 17.0592C14.2303 17.0592 13.5223 17.3592 13.0278 17.8822C12.8026 18.1204 12.4271 18.131 12.1889 17.9058C11.9508 17.6806 11.9402 17.305 12.1654 17.0669C12.4916 16.7218 12.8809 16.4439 13.3085 16.2431V16.2431ZM14.0134 14.8932C14.0134 15.4167 14.4393 15.8427 14.9628 15.8427C15.4864 15.8427 15.9123 15.4167 15.9123 14.8932C15.9123 14.3697 15.4864 13.9437 14.9628 13.9437C14.4393 13.9437 14.0134 14.3697 14.0134 14.8932V14.8932Z" fill="#262D70" stroke="#262D70" stroke-width="0.4"/>
</svg>
