<?xml version="1.0" encoding="utf-8"?>
<!-- Generator: Adobe Illustrator 24.0.1, SVG Export Plug-In . SVG Version: 6.00 Build 0)  -->
<svg version="1.1" id="Layer_1" xmlns="http://www.w3.org/2000/svg" xmlns:xlink="http://www.w3.org/1999/xlink" x="0px" y="0px"
	 viewBox="0 0 56.7 77" style="enable-background:new 0 0 56.7 77;" xml:space="preserve">
<style type="text/css">
	.st0{fill:#00D2CB;}
</style>
<title>app doc 3</title>
<g>
	<path class="st0" d="M38.8,11.9c-4.9,4.1-6.8,9.2-5.2,15.4c0.8,3,2.6,5.7,5.2,7.5c2.5,1.9,5.5,2.9,8.6,2.8c0.5,2.2,1.3,4.3,2.5,6.2
		c1.3,2.4,2.6,4.8,3.9,7.3c0.9,1.7,1.4,3.6,1.6,5.5c0.2,1.9-0.9,3.6-2.7,4.3c-8.2,2.7-16.4,4.8-25.1,4.7c-5.9-0.2-11.8-1.1-17.4-2.8
		c-2-0.6-3.9-1.2-5.9-1.8c-2.2-0.6-3.6-2.9-3.1-5.1c0.3-2,1-3.9,2-5.7c1.3-2.3,2.6-4.7,3.8-7c0.1-0.1,0.1-0.3,0.2-0.4
		c1.3-2.3,2-4.9,2.1-7.6c0.1-3,0.4-6.1,0.6-9.1c0.6-8,6.7-15.6,14.3-17.8c3.5-1.1,7.4-0.8,10.7,1c1.2,0.6,2.4,1.4,3.5,2.2
		C38.6,11.6,38.7,11.8,38.8,11.9z"/>
	<path class="st0" d="M34.5,69.7c0,3.4-2.8,6.2-6.2,6.2c-1.7,0-3.3-0.7-4.5-1.9c-1.7-1.8-2.2-4.5-1.2-6.8c0.1-0.4,0.5-0.6,0.8-0.5
		c3.3,0.3,6.6,0.3,9.8,0c0.3,0,0.5,0.1,0.6,0.4l0.8,2.6L34.5,69.7z M30.5,69.7c0-1.2-1-2.2-2.2-2.1s-2.2,1-2.1,2.2
		c0,1.2,1,2.1,2.2,2.1c1.2,0,2.2-0.9,2.2-2.1C30.5,69.8,30.5,69.8,30.5,69.7L30.5,69.7z"/>
	<path class="st0" d="M31.8,6.9c-2.3-0.5-4.8-0.5-7.1,0c-1-1.2-0.8-3.6,0.5-4.9c1.5-1.5,3.9-1.7,5.6-0.4C32.4,2.9,32.9,5.1,31.8,6.9
		z"/>
</g>
</svg>
