<svg width="16" height="16" viewBox="0 0 16 16" fill="none" xmlns="http://www.w3.org/2000/svg">
<path d="M4.58608 8.14307C4.26374 8.14307 4 7.87498 4 7.54732V1.73881C4 1.41115 4.26374 1.14307 4.58608 1.14307H11.4139C11.7363 1.14307 12 1.41115 12 1.73881V7.51753C12 7.84519 11.7363 8.11328 11.4139 8.11328C11.0916 8.11328 10.8278 7.84519 10.8278 7.51753V2.30477H5.17216V7.54732C5.17216 7.87498 4.90842 8.14307 4.58608 8.14307Z" fill="#03BBB4" stroke="#03BBB4" stroke-width="0.3"/>
<path d="M12.3453 2.30973H3.65365C3.33281 2.30973 3.07031 2.04723 3.07031 1.7264C3.07031 1.40557 3.33281 1.14307 3.65365 1.14307H12.3745C12.6953 1.14307 12.9578 1.40557 12.9578 1.7264C12.9578 2.04723 12.6661 2.30973 12.3453 2.30973Z" fill="#03BBB4" stroke="#03BBB4" stroke-width="0.3"/>
<path d="M14.2708 14.9968H1.72909C1.40825 14.9968 1.14575 14.7343 1.14575 14.4135V7.76351C1.14575 7.44268 1.40825 7.18018 1.72909 7.18018H14.2999C14.6208 7.18018 14.8833 7.44268 14.8833 7.76351V14.4135C14.8541 14.7343 14.5916 14.9968 14.2708 14.9968ZM2.28325 13.8593H13.7166V8.34684H2.28325V13.8593Z" fill="#03BBB4" stroke="#03BBB4" stroke-width="0.3"/>
<path d="M9.40018 14.997H6.60018C6.27935 14.997 6.01685 14.7345 6.01685 14.4136V10.5636C6.01685 10.2428 6.27935 9.98032 6.60018 9.98032H9.40018C9.72101 9.98032 9.98351 10.2428 9.98351 10.5636V14.4428C9.98351 14.7345 9.72101 14.997 9.40018 14.997ZM7.15435 13.8595H8.81684V11.147H7.15435V13.8595Z" fill="#03BBB4" stroke="#03BBB4" stroke-width="0.3"/>
<path d="M7.99984 6.53877C7.679 6.53877 7.4165 6.27627 7.4165 5.95543V3.4471C7.4165 3.12627 7.679 2.86377 7.99984 2.86377C8.32067 2.86377 8.58317 3.12627 8.58317 3.4471V5.95543C8.58317 6.30543 8.32067 6.53877 7.99984 6.53877Z" fill="#03BBB4"/>
<path d="M9.25427 5.28434H6.74593C6.4251 5.28434 6.1626 5.02184 6.1626 4.70101C6.1626 4.38018 6.4251 4.11768 6.74593 4.11768H9.25427C9.5751 4.11768 9.8376 4.38018 9.8376 4.70101C9.8376 5.02184 9.5751 5.28434 9.25427 5.28434Z" fill="#03BBB4"/>
</svg>
