<svg width="355" height="557" viewBox="0 0 355 557" fill="none" xmlns="http://www.w3.org/2000/svg">
<g filter="url(#filter0_d_318_7021)">
<mask id="path-1-outside-1_318_7021" maskUnits="userSpaceOnUse" x="4" y="2" width="347" height="549" fill="black">
<rect fill="white" x="4" y="2" width="347" height="549"/>
<path fill-rule="evenodd" clip-rule="evenodd" d="M5 19C5 10.1634 12.1634 3 21 3H334C342.837 3 350 10.1634 350 19V455.005C337.804 455.271 328 465.241 328 477.5C328 489.759 337.804 499.729 350 499.995V534C350 542.837 342.837 550 334 550H21C12.1634 550 5 542.837 5 534V499.995C5.16623 499.998 5.3329 500 5.5 500C17.9264 500 28 489.926 28 477.5C28 465.074 17.9264 455 5.5 455C5.3329 455 5.16623 455.002 5 455.005V19Z"/>
</mask>
<path fill-rule="evenodd" clip-rule="evenodd" d="M5 19C5 10.1634 12.1634 3 21 3H334C342.837 3 350 10.1634 350 19V455.005C337.804 455.271 328 465.241 328 477.5C328 489.759 337.804 499.729 350 499.995V534C350 542.837 342.837 550 334 550H21C12.1634 550 5 542.837 5 534V499.995C5.16623 499.998 5.3329 500 5.5 500C17.9264 500 28 489.926 28 477.5C28 465.074 17.9264 455 5.5 455C5.3329 455 5.16623 455.002 5 455.005V19Z" fill="white"/>
<path d="M350 455.005L350.022 456.005L351 455.984V455.005H350ZM350 499.995H351V499.016L350.022 498.995L350 499.995ZM5 499.995L5.02184 498.995L4 498.972V499.995H5ZM5 455.005H4V456.028L5.02184 456.005L5 455.005ZM21 2C11.6112 2 4 9.61115 4 19H6C6 10.7157 12.7157 4 21 4V2ZM334 2H21V4H334V2ZM351 19C351 9.61116 343.389 2 334 2V4C342.284 4 349 10.7157 349 19H351ZM351 455.005V19H349V455.005H351ZM329 477.5C329 465.786 338.369 456.259 350.022 456.005L349.978 454.006C337.24 454.283 327 464.696 327 477.5H329ZM350.022 498.995C338.369 498.741 329 489.214 329 477.5H327C327 490.304 337.24 500.717 349.978 500.994L350.022 498.995ZM351 534V499.995H349V534H351ZM334 551C343.389 551 351 543.389 351 534H349C349 542.284 342.284 549 334 549V551ZM21 551H334V549H21V551ZM4 534C4 543.389 11.6112 551 21 551V549C12.7157 549 6 542.284 6 534H4ZM4 499.995V534H6V499.995H4ZM5.5 499C5.34008 499 5.18069 498.998 5.02184 498.995L4.97816 500.994C5.15176 500.998 5.32572 501 5.5 501V499ZM27 477.5C27 489.374 17.3741 499 5.5 499V501C18.4787 501 29 490.479 29 477.5H27ZM5.5 456C17.3741 456 27 465.626 27 477.5H29C29 464.521 18.4787 454 5.5 454V456ZM5.02184 456.005C5.18069 456.002 5.34008 456 5.5 456V454C5.32572 454 5.15176 454.002 4.97816 454.006L5.02184 456.005ZM4 19V455.005H6V19H4Z" fill="#F3F3F3" mask="url(#path-1-outside-1_318_7021)"/>
</g>
<defs>
<filter id="filter0_d_318_7021" x="0" y="0" width="355" height="557" filterUnits="userSpaceOnUse" color-interpolation-filters="sRGB">
<feFlood flood-opacity="0" result="BackgroundImageFix"/>
<feColorMatrix in="SourceAlpha" type="matrix" values="0 0 0 0 0 0 0 0 0 0 0 0 0 0 0 0 0 0 127 0" result="hardAlpha"/>
<feOffset dy="2"/>
<feGaussianBlur stdDeviation="2"/>
<feComposite in2="hardAlpha" operator="out"/>
<feColorMatrix type="matrix" values="0 0 0 0 0.768627 0 0 0 0 0.768627 0 0 0 0 0.768627 0 0 0 0.16 0"/>
<feBlend mode="normal" in2="BackgroundImageFix" result="effect1_dropShadow_318_7021"/>
<feBlend mode="normal" in="SourceGraphic" in2="effect1_dropShadow_318_7021" result="shape"/>
</filter>
</defs>
</svg>
