<svg width="21" height="21" viewBox="0 0 21 21" fill="none" xmlns="http://www.w3.org/2000/svg">
<path d="M12.6093 6.32696C12.1422 5.25487 12.3784 4.00617 13.2047 3.17871L15.1127 1.27165C15.7466 0.630243 16.6502 0.332795 17.5411 0.472248C18.4421 0.60457 19.2247 1.16159 19.6448 1.96955C20.5674 3.70571 20.8047 5.72489 20.3098 7.6276C19.0906 12.457 12.4529 19.0992 7.62442 20.3093C6.97264 20.4746 6.3029 20.5588 5.63048 20.5599C4.35269 20.5591 3.0946 20.245 1.96638 19.6453C0.574297 18.9193 0.0343113 17.2023 0.760302 15.8102C0.893574 15.5546 1.06492 15.3208 1.26851 15.1168L3.17558 13.2088C4.00335 12.3823 5.25237 12.1462 6.32473 12.6134C6.82514 12.8291 7.28157 13.1351 7.67109 13.5161C8.13755 13.9854 9.85802 13.3058 11.5803 11.5844C13.3027 9.86301 13.9804 8.14255 13.5167 7.67423C13.1341 7.28463 12.8265 6.82796 12.6093 6.32696ZM12.8764 12.8796C10.779 14.9751 7.95824 16.3882 6.3823 14.8113C6.15018 14.5891 5.87963 14.4109 5.58381 14.2854C5.20387 14.1235 4.76361 14.2101 4.47341 14.504L2.56634 16.4111C2.3391 16.6358 2.23363 16.956 2.2828 17.2718C2.33062 17.5963 2.53184 17.8778 2.82338 18.0282C4.15892 18.7458 5.71775 18.9277 7.18261 18.5367C11.3315 17.4903 17.4862 11.3356 18.5326 7.18127C18.9231 5.71506 18.741 4.15517 18.0231 2.81835C17.8716 2.52843 17.5903 2.32876 17.2667 2.28146C17.2162 2.27342 17.1651 2.26942 17.1139 2.26957C16.8479 2.26949 16.593 2.37587 16.406 2.565L14.4989 4.47207C14.2055 4.76211 14.1188 5.20186 14.2803 5.58155C14.4052 5.87932 14.5835 6.15181 14.8062 6.38555C16.3832 7.95781 14.9718 10.7758 12.8764 12.8796Z" fill="#03BBB4"/>
</svg>
