<svg id="Layer_1" data-name="Layer 1" xmlns="http://www.w3.org/2000/svg" viewBox="0 0 75 75"><defs><style>.cls-1{fill:#e2a77d;}.cls-2{fill:#ffc28e;}.cls-3{fill:#f0b784;}.cls-4{fill:#2b0d04;}.cls-5{fill:#fff;}.cls-6{fill:#414042;}.cls-7{fill:#231f20;}.cls-8{fill:#bad1dd;}.cls-9{fill:#3d5872;}.cls-10{fill:#e4f4ff;}.cls-11{fill:#020202;}</style></defs><title>app doc 2</title><g id="_7" data-name="7"><polygon class="cls-1" points="46.98 38.56 47.02 39.42 47.38 46.51 37.36 55.63 33.86 52.42 28.17 47.23 27.73 38.51 46.98 38.56"/><path class="cls-2" d="M35.89,11.73C37,12,38.56,10.58,39.3,10a15.61,15.61,0,0,1,4.45-2.54,6.08,6.08,0,0,1,3.68-.37,5.08,5.08,0,0,1,3.28,4.1c.67,3.7-1.19,7.53-.59,11.23.08.52.22,1.7,1.05,1.13.34-.23.12-.87.49-1.15.81-.62,1.2.37,1.27,1A12.61,12.61,0,0,1,52,29.82c-.53,1.16-1.33,1.52-2.11,2.37S49.28,34.9,49,36a6.36,6.36,0,0,1-1,2.12c-.94,1.35-2.67,2.05-3.77,3.28a12.59,12.59,0,0,1-3.42,3.11,7.34,7.34,0,0,1-3.28.55l-.46,0-1.7-33.51Z"/><path class="cls-3" d="M20.11,25c0-.6.29-1.63,1.16-1.09.39.24.24.9.6,1.1.88.48.91-.71.94-1.23.11-2-.94-3.85-.78-5.81.14-1.8-.05-3.65.52-5.41a6.72,6.72,0,0,1,2.84-3.76,5.63,5.63,0,0,1,4.3-.58,6.16,6.16,0,0,1,3,2.06c.92,1,1.36,1,2.75,1.34l1.7,33.51a6.36,6.36,0,0,1-2.86-.26,12.6,12.6,0,0,1-3.72-2.74c-1.22-1.12-3-1.64-4.08-2.89a6.37,6.37,0,0,1-1.16-2c-.4-1.11-.34-2.88-1.29-3.73s-1.7-1-2.35-2.15A12.58,12.58,0,0,1,20.11,25Z"/><path class="cls-4" d="M51.94,20.8a15.2,15.2,0,0,0-.41,3.65L50,24.52a7.35,7.35,0,0,1,0-.75,19.56,19.56,0,0,0-.15-2.29c-.38-3.56.9-15.3-6.41-11.6-1.08.54-2,1.31-3.08,1.89a10.6,10.6,0,0,1-10,.11c-1.71-.91-4.44-3-6.23-1.08-1.17,1.26-.72,4.57-.82,6.12a42.23,42.23,0,0,0-.18,6.27c.07.89.3,1.74.32,2.63-2.35.88-1.84-1.73-2.3-3.09a23.66,23.66,0,0,1-1.05-6.64c-.12-2.27-.92-4.75-.21-7,1.4-4.42,7.34-6.87,11.46-7.78A27.35,27.35,0,0,1,45,1.88c1.8.56,4.57,1.42,5.84,2.92S52.27,9.1,52.62,11C53.21,14.26,52.61,17.64,51.94,20.8Z"/><path class="cls-5" d="M28.29,45.47l-4.85,4.14A46,46,0,0,0,27,55.4a47.76,47.76,0,0,0,5.66,6.54s1.33-5.23,4.83-7.83C32.13,52.32,28.29,45.47,28.29,45.47Z"/><path class="cls-6" d="M37.47,75.14v-21s-2.33,4.9-5,3.59L28.35,47.61l-3.62,1.63-4.22,1.91-1.3.4L15.77,52.6l-4.93,1.51a21.47,21.47,0,0,0-9.21,5.64l-.57.6a5.81,5.81,0,0,0-1.54,3c-.24,1.26-.6,9.48-1,11.83Z"/><path class="cls-7" d="M76.52,75.14c-.44-2.35-.8-10.57-1-11.83a5.81,5.81,0,0,0-1.54-3h0a24.65,24.65,0,0,0-10.57-6.49L59.23,52.6l-3.45-1.05-1.29-.4-4.22-1.91-3.62-1.63L42.53,57.69c-2.66,1.31-5-3.59-5-3.59v21Z"/><path class="cls-8" d="M45.66,75.14,47.8,63.23,38.49,53H37.23s-9.79,10.1-9.72,10.83l2.12,11.28Z"/><path class="cls-9" d="M35.85,59.81l-2,15.33h7.62l-2-15.33a2,2,0,0,1,.19-1.38l1.26-2.32a.39.39,0,0,0-.09-.41l-1.45-1.41a3.79,3.79,0,0,1-.92-1c-.13-.31-.51-1-1-.69a3.17,3.17,0,0,0-.75,1,10,10,0,0,1-.93.91l-1.3,1.26a.37.37,0,0,0-.08.41l1.25,2.32A2,2,0,0,1,35.85,59.81Z"/><path class="cls-10" d="M37.89,52.2a.37.37,0,0,1-.5,0L28,43.31,26,49.76l4,14.1L37.33,53A.37.37,0,0,1,38,53l7.34,10.89,4-14.1-2.09-6.45Z"/><path class="cls-6" d="M51,75.14l7.78-15.42-8.14-2.18,8.92-2.93A18.71,18.71,0,0,0,55.51,51a39.52,39.52,0,0,0-6.87-3.38L44.55,62.52,42.37,75.14Z"/><path class="cls-7" d="M16.5,59.72l7.73,15.42h8.61l-3.37-16.3L26.64,47.61a18.6,18.6,0,0,0-6.87,3.12,21.49,21.49,0,0,0-4.06,3.88l8.92,2.93Z"/><g id="_9" data-name="9"><path class="cls-11" d="M52.22,21.93l-.44-1.08s-4.81,0-7.14.12-5,.78-6.12,2.19l0-.06a3.94,3.94,0,0,1-1.66.49,3.89,3.89,0,0,1-1.68-.38l0,.06c-1.2-1.34-4-1.87-6.24-1.8s-8,.89-8,.89l-.33,1.48L22.9,25a3.11,3.11,0,0,0,0,.61c.34,3,3.42,4.46,6.29,4.37h.23A7.46,7.46,0,0,0,31,29.74a6.83,6.83,0,0,0,4.58-4.22,2.15,2.15,0,0,0,.15-.85,4.45,4.45,0,0,0,1.15.13A4.56,4.56,0,0,0,38,24.6a2.17,2.17,0,0,0,.21.84,6.84,6.84,0,0,0,4.84,3.91,7.57,7.57,0,0,0,1.58.17h.24c2.86-.09,5.84-1.76,6-4.77a3,3,0,0,0,0-.6ZM34.38,25.12a5.62,5.62,0,0,1-3.75,3.46,6.11,6.11,0,0,1-1.29.22h-.19c-2.29.07-4.73-1-5-3.3a1.76,1.76,0,0,1,.46-1.44,6.34,6.34,0,0,1,4.3-1.39c2.37-.08,4.61.54,5.32,1.47A1,1,0,0,1,34.38,25.12Zm10.46,3.19h-.2a6.14,6.14,0,0,1-1.29-.14,5.58,5.58,0,0,1-4-3.21.94.94,0,0,1,.08-1c.65-1,2.84-1.73,5.22-1.8a6.28,6.28,0,0,1,4.37,1.11,1.71,1.71,0,0,1,.55,1.4C49.49,27,47.12,28.23,44.84,28.31Z"/></g></g></svg>