<svg width="12" height="17" viewBox="0 0 12 17" fill="none" xmlns="http://www.w3.org/2000/svg">
<path d="M9.66839 1.52118H7.94967V2.55669H9.13683V4.86933C9.13683 6.61089 7.68211 8.02764 5.8943 8.02764H5.64623C3.85823 8.02764 2.4037 6.61071 2.4037 4.86933V2.55669H3.59086V1.52118H1.87214C1.57855 1.52118 1.34058 1.75297 1.34058 2.03893V4.86933C1.34058 7.18179 3.27211 9.06315 5.64623 9.06315H5.8943C8.26842 9.06315 10.2 7.18179 10.2 4.86933V2.03893C10.2 1.75297 9.96198 1.52118 9.66839 1.52118Z" fill="#03BBB4" stroke="#03BBB4" stroke-width="0.3"/>
<path d="M7.89558 0.779236C7.60198 0.779236 7.36401 1.01102 7.36401 1.29699V2.74671C7.36401 3.03268 7.60198 3.26446 7.89558 3.26446C8.18917 3.26446 8.42714 3.03268 8.42714 2.74671V1.29699C8.42714 1.01102 8.18917 0.779236 7.89558 0.779236Z" fill="#03BBB4" stroke="#03BBB4" stroke-width="0.3"/>
<path d="M3.69709 0.779236C3.4035 0.779236 3.16553 1.01102 3.16553 1.29699V2.74671C3.16553 3.03268 3.4035 3.26446 3.69709 3.26446C3.99068 3.26446 4.22865 3.03268 4.22865 2.74671V1.29699C4.22865 1.01102 3.99068 0.779236 3.69709 0.779236Z" fill="#03BBB4" stroke="#03BBB4" stroke-width="0.3"/>
<path d="M6.33697 11.462V8.52808H5.27384V11.462H3.55513C2.16775 11.462 1.03906 12.5614 1.03906 13.9125C1.03906 15.2639 2.17572 16.3633 3.57284 16.3633H3.82091C5.20828 16.3633 6.33697 15.2639 6.33697 13.9125V12.4975H8.14428V11.462H6.33697ZM5.27384 13.9124C5.27384 14.6926 4.62197 15.3276 3.82091 15.3276H3.57284C2.74822 15.3276 2.10219 14.7061 2.10219 13.9124C2.10219 13.1321 2.75406 12.4974 3.55513 12.4974H5.27384V13.9124Z" fill="#03BBB4" stroke="#03BBB4" stroke-width="0.3"/>
<path d="M9.29672 10.3574C8.37853 10.3574 7.63135 11.085 7.63135 11.9797C7.63135 12.8741 8.37838 13.6018 9.29672 13.6018C10.2151 13.6018 10.9623 12.8741 10.9623 11.9797C10.9623 11.0852 10.2153 10.3574 9.29672 10.3574ZM9.29672 12.5662C8.96466 12.5662 8.69447 12.303 8.69447 11.9796C8.69447 11.656 8.96469 11.3928 9.29672 11.3928C9.62894 11.3928 9.89916 11.656 9.89916 11.9796C9.89916 12.303 9.62894 12.5662 9.29672 12.5662Z" fill="#03BBB4" stroke="#03BBB4" stroke-width="0.3"/>
</svg>
