<svg width="107" height="28" viewBox="0 0 107 28" fill="none" xmlns="http://www.w3.org/2000/svg">
<path d="M59.7764 9.31296H59.5084C59.3574 9.31728 59.2068 9.29371 59.0647 9.2435C58.9396 9.20263 58.823 9.14031 58.7202 9.05943C58.634 8.99108 58.5644 8.90499 58.516 8.80728C58.4731 8.72064 58.4503 8.62574 58.4494 8.52943C58.4422 8.44812 58.4577 8.36642 58.4941 8.29303C58.5306 8.21964 58.5866 8.15731 58.6564 8.11266C58.8189 8.02377 59.0034 7.98075 59.1894 7.98833C59.2504 7.98833 59.4077 8.00499 59.5176 8.0175C59.5494 8.02129 59.5814 8.01283 59.607 7.9939C59.6325 7.97498 59.6495 7.94708 59.6544 7.91609L59.714 7.55001C59.7171 7.53106 59.7161 7.51169 59.7112 7.49312C59.7063 7.47454 59.6975 7.45717 59.6853 7.44209C59.6732 7.42702 59.658 7.41457 59.6408 7.40553C59.6235 7.39649 59.6045 7.39105 59.585 7.38956C59.4269 7.37637 59.1951 7.3583 59.1377 7.3583C58.9365 7.35421 58.7361 7.3826 58.5444 7.44235C58.3929 7.4907 58.2522 7.56684 58.1297 7.66671C58.0232 7.75443 57.9389 7.86526 57.8837 7.99041C57.8315 8.10933 57.8045 8.23742 57.8043 8.36689C57.8031 8.48294 57.8204 8.59847 57.8554 8.70934C57.8864 8.80663 57.9292 8.89991 57.983 8.98719C58.0283 9.06108 58.0829 9.1292 58.1453 9.19001C58.1921 9.23509 58.2424 9.27666 58.2956 9.31436H57.5938C57.5728 9.31427 57.552 9.31825 57.5325 9.32606C57.5131 9.33388 57.4954 9.34537 57.4806 9.35989C57.4657 9.37442 57.4539 9.39168 57.4458 9.41069C57.4377 9.42969 57.4336 9.45007 57.4336 9.47066V9.77489C57.4336 9.79548 57.4377 9.81585 57.4458 9.83486C57.4539 9.85387 57.4657 9.87113 57.4806 9.88565C57.4954 9.90017 57.5131 9.91167 57.5325 9.91949C57.552 9.9273 57.5728 9.93128 57.5938 9.93119H59.6119C59.6553 9.93119 59.697 9.91428 59.7277 9.88419C59.7584 9.8541 59.7756 9.81327 59.7756 9.77072V9.31436" fill="white"/>
<path d="M68.3309 6.9466C68.4221 6.94695 68.5124 6.92874 68.5961 6.89311C68.6764 6.86009 68.7499 6.81301 68.813 6.75418C68.9095 6.66197 68.9753 6.54326 69.0016 6.41367C69.0279 6.28409 69.0136 6.14973 68.9604 6.02831C68.8898 5.86888 68.7597 5.7419 68.5968 5.67335C68.4725 5.62112 68.335 5.6069 68.2023 5.63256C68.0696 5.65822 67.9479 5.72256 67.8532 5.81713C67.7936 5.87778 67.7456 5.94836 67.7114 6.02553C67.666 6.12604 67.6472 6.23612 67.6567 6.34563C67.6662 6.45513 67.7037 6.56052 67.7657 6.65209C67.8277 6.74366 67.9122 6.81846 68.0115 6.86956C68.1108 6.92067 68.2216 6.94645 68.3338 6.94452" fill="white"/>
<path d="M66.5154 6.94677C66.6066 6.94708 66.6969 6.92888 66.7805 6.89329C66.8608 6.86028 66.9343 6.8132 66.9974 6.75436C67.094 6.66214 67.1597 6.54343 67.1861 6.41385C67.2124 6.28427 67.198 6.14991 67.1449 6.02849C67.0743 5.86906 66.9442 5.74207 66.7812 5.67352C66.6571 5.62116 66.5196 5.60688 66.387 5.63255C66.2544 5.65821 66.1329 5.72263 66.0383 5.81731C65.9787 5.87785 65.9306 5.94846 65.8966 6.02571C65.8514 6.12623 65.8327 6.23624 65.8423 6.34568C65.8519 6.45511 65.8894 6.56043 65.9513 6.65195C66.0133 6.74346 66.0978 6.81822 66.197 6.86938C66.2962 6.92053 66.4069 6.94644 66.5189 6.9447" fill="white"/>
<path d="M76.1923 9.89641C76.1002 9.69986 75.9868 9.51355 75.8542 9.3407C75.7181 9.16221 75.5567 9.00364 75.375 8.86976C75.185 8.73141 74.974 8.62312 74.7498 8.54884C74.4984 8.46709 74.2349 8.42693 73.97 8.43005C73.8254 8.43142 73.6812 8.44515 73.5391 8.47105C73.3698 8.50274 73.2056 8.55623 73.0507 8.63012C72.8656 8.71844 72.6921 8.82827 72.5339 8.95727C72.3394 9.11752 72.1669 9.30173 72.0207 9.50533C71.8334 9.76374 71.6717 10.0392 71.538 10.3278C71.3675 10.6988 71.229 11.0831 71.124 11.4767C71.0963 11.5933 71.0449 11.7033 70.9731 11.8001C70.9013 11.897 70.8104 11.9788 70.7058 12.0407C70.4913 12.1612 70.2476 12.2226 70.0005 12.2185H69.646C69.3315 12.2237 69.0175 12.1911 68.7111 12.1213C68.4686 12.0655 68.2383 11.9674 68.0313 11.8316V8.87947C68.0313 8.78736 67.9939 8.69903 67.9275 8.63389C67.861 8.56876 67.7709 8.53216 67.6769 8.53216H67.2367C67.1427 8.53216 67.0525 8.56876 66.986 8.63389C66.9196 8.69903 66.8822 8.78736 66.8822 8.87947V11.5142C66.8951 11.6981 66.854 11.8817 66.7639 12.0435C66.7307 12.0978 66.6835 12.1426 66.6269 12.1734C66.5704 12.2041 66.5067 12.2197 66.442 12.2185H65.0952C64.7334 12.2266 64.3723 12.1815 64.0241 12.0845C63.7496 12.0037 63.4966 11.8645 63.2834 11.6767V4.73745C63.2834 4.64534 63.2461 4.55698 63.1796 4.49185C63.1131 4.42671 63.023 4.39014 62.929 4.39014H62.4952C62.4012 4.39014 62.311 4.42671 62.2445 4.49185C62.1781 4.55698 62.1407 4.64534 62.1407 4.73745V11.5149C62.1535 11.6987 62.1127 11.8822 62.0231 12.0442C61.9897 12.0985 61.9424 12.1433 61.8857 12.1741C61.8291 12.2048 61.7652 12.2204 61.7005 12.2192H57.4C56.8554 12.2263 56.3109 12.2001 55.7696 12.1407C55.4501 12.1125 55.1381 12.0293 54.8481 11.8948C54.6598 11.8069 54.5126 11.6523 54.4362 11.4621C54.3677 11.2562 54.3353 11.0403 54.3405 10.8237C54.3405 10.6569 54.3543 10.4903 54.3817 10.3257C54.3905 10.2782 54.3892 10.2294 54.3778 10.1825C54.3663 10.1355 54.345 10.0914 54.3152 10.053C54.2854 10.0145 54.2477 9.98261 54.2046 9.95925C54.1615 9.93588 54.1139 9.92158 54.0648 9.91725L53.6905 9.88251C53.5989 9.87322 53.5071 9.89929 53.4347 9.95518C53.3623 10.0111 53.315 10.0924 53.3028 10.1819C53.2844 10.309 53.2673 10.4361 53.261 10.4841C53.2489 10.5938 53.239 10.7015 53.2326 10.805C53.2262 10.9085 53.2227 11.0002 53.2227 11.0794C53.2218 11.2795 53.2368 11.4795 53.2673 11.6774C53.2951 11.8638 53.353 12.0445 53.4389 12.213C53.5299 12.3865 53.6532 12.5417 53.8025 12.6707C53.9857 12.825 54.1952 12.9463 54.4214 13.0292C54.7237 13.1408 55.0381 13.2181 55.3585 13.2598C55.7958 13.3182 56.2369 13.3454 56.6783 13.341H61.9274C62.0668 13.3429 62.2056 13.3239 62.3392 13.2848C62.4555 13.2494 62.566 13.198 62.6674 13.132C62.7623 13.07 62.8472 12.9944 62.9191 12.9076C62.9889 12.8235 63.0499 12.7327 63.1012 12.6367C63.2097 12.7389 63.3268 12.8318 63.4514 12.9146C63.5867 13.0039 63.7311 13.0791 63.8824 13.1389C64.0551 13.2072 64.2348 13.2575 64.4183 13.289C64.6386 13.3261 64.8618 13.3437 65.0853 13.3417H66.6802C66.9173 13.3508 67.1518 13.2911 67.3543 13.1702C67.5259 13.0624 67.6711 12.9189 67.7796 12.7499C68.0051 12.9304 68.2592 13.0735 68.5317 13.1736C68.886 13.2956 69.2601 13.3525 69.6354 13.3417H70.2025C70.361 13.3435 70.5192 13.3288 70.6746 13.298C70.8102 13.271 70.9404 13.2226 71.0602 13.1549C71.1825 13.0842 71.2926 12.9949 71.3863 12.8902C71.4963 12.7651 71.5914 12.628 71.6698 12.4818C71.7827 12.6029 71.9079 12.7126 72.0434 12.809C72.2046 12.925 72.3778 13.0242 72.5601 13.1049C72.7693 13.1973 72.9873 13.2694 73.2109 13.3202C73.4652 13.3774 73.7254 13.4054 73.9863 13.4036C74.2519 13.4068 74.5164 13.3709 74.771 13.2973C74.9927 13.2326 75.2034 13.1362 75.3962 13.0111C75.5741 12.8952 75.7341 12.7549 75.8712 12.5943C76.0009 12.4431 76.1111 12.2767 76.1994 12.0991C76.2832 11.9302 76.3475 11.7527 76.3908 11.5698C76.432 11.4014 76.4536 11.2289 76.4553 11.0557C76.4538 10.8649 76.4322 10.6747 76.3908 10.4882C76.3471 10.2854 76.2807 10.0878 76.193 9.89919L76.1923 9.89641ZM75.3091 11.7274C75.2367 11.8665 75.1249 11.9823 74.9872 12.0609C74.8301 12.1477 74.6581 12.2058 74.4797 12.2324C74.2616 12.2675 74.0408 12.2842 73.8198 12.2824C73.6406 12.2818 73.462 12.265 73.286 12.2324C73.1089 12.2012 72.9342 12.1585 72.7629 12.1046C72.6142 12.0591 72.47 12.0008 72.3319 11.9303C72.2361 11.8872 72.151 11.8245 72.0824 11.7462C72.1288 11.4612 72.2058 11.1818 72.312 10.9126C72.4109 10.6567 72.5439 10.4147 72.7076 10.193C72.8546 9.99392 73.0377 9.82297 73.2477 9.68871C73.4473 9.56247 73.6793 9.49431 73.9169 9.49214C74.1586 9.48317 74.3975 9.54508 74.603 9.66995C74.7858 9.78443 74.9432 9.93373 75.0659 10.109C75.1846 10.2792 75.275 10.4667 75.3339 10.6647C75.3873 10.8345 75.4164 11.0107 75.4203 11.1884C75.4273 11.3751 75.3889 11.5608 75.3083 11.7302" fill="white"/>
<path d="M105.134 8.87156V12.2169H104.212C103.911 12.2186 103.611 12.1905 103.317 12.1328C103.053 12.0822 102.803 11.9793 102.581 11.8306V9.5509C102.581 9.45879 102.544 9.37043 102.477 9.3053C102.411 9.24017 102.32 9.20359 102.226 9.20359H101.793C101.699 9.20359 101.609 9.24017 101.543 9.3053C101.476 9.37043 101.439 9.45879 101.439 9.5509V11.5132C101.452 11.6971 101.411 11.8808 101.321 12.0425C101.287 12.097 101.24 12.1419 101.183 12.1727C101.126 12.2034 101.062 12.2189 100.997 12.2176H100.556C100.261 12.2188 99.9677 12.1915 99.6789 12.1363C99.4079 12.0853 99.1507 11.9793 98.924 11.8251V10.0809C98.924 9.98879 98.8866 9.90043 98.8202 9.8353C98.7537 9.77016 98.6635 9.73359 98.5695 9.73359H98.1357C98.0417 9.73359 97.9516 9.77016 97.8851 9.8353C97.8187 9.90043 97.7813 9.98879 97.7813 10.0809V11.5139C97.7942 11.6978 97.7531 11.8814 97.6629 12.0432C97.6297 12.0975 97.5825 12.1424 97.526 12.1731C97.4695 12.2038 97.4057 12.2194 97.3411 12.2183H87.3073C86.948 12.2263 86.5895 12.1811 86.244 12.0842C85.972 12.0032 85.7207 11.8664 85.5069 11.6827V4.73647C85.5069 4.64436 85.4695 4.556 85.4031 4.49087C85.3366 4.42574 85.2464 4.38916 85.1524 4.38916H84.7186C84.6246 4.38916 84.5344 4.42574 84.468 4.49087C84.4015 4.556 84.3642 4.64436 84.3642 4.73647V11.5139C84.3769 11.6977 84.3361 11.8812 84.2465 12.0432C84.2135 12.0975 84.1664 12.1424 84.11 12.1731C84.0536 12.2038 83.9899 12.2194 83.9254 12.2183H82.2206V7.16833C82.2205 7.12126 82.211 7.07467 82.1925 7.03122C82.174 6.98777 82.147 6.94831 82.113 6.9151C82.079 6.88188 82.0386 6.85555 81.9942 6.83762C81.9498 6.81969 81.9022 6.81052 81.8541 6.81061H81.4388C81.3907 6.81052 81.3432 6.81969 81.2987 6.83762C81.2543 6.85555 81.2139 6.88188 81.1799 6.9151C81.1459 6.94831 81.1189 6.98777 81.1004 7.03122C81.082 7.07467 81.0724 7.12126 81.0723 7.16833V12.2183H78.6225C78.5722 12.2182 78.5222 12.2278 78.4757 12.2466C78.4291 12.2654 78.3868 12.293 78.3511 12.3278C78.3154 12.3627 78.2871 12.404 78.2677 12.4496C78.2484 12.4951 78.2384 12.544 78.2383 12.5934V12.965C78.2384 13.0143 78.2484 13.0632 78.2677 13.1087C78.2871 13.1543 78.3154 13.1957 78.3511 13.2305C78.3868 13.2653 78.4291 13.2929 78.4757 13.3117C78.5222 13.3305 78.5722 13.3402 78.6225 13.3401H84.1515C84.4124 13.3499 84.6695 13.2769 84.8845 13.1317C85.0674 13.0044 85.2163 12.8357 85.3183 12.6399C85.4265 12.7421 85.5434 12.835 85.6678 12.9177C85.8029 13.0066 85.9474 13.0809 86.0988 13.1393C86.272 13.2054 86.4515 13.2545 86.6346 13.2859C86.8528 13.3228 87.0739 13.3405 87.2953 13.3387H97.563C97.8 13.3478 98.0346 13.2894 98.2385 13.1706C98.4101 13.0643 98.5554 12.922 98.6638 12.7538C98.79 12.8612 98.9291 12.9534 99.0778 13.0282C99.2267 13.103 99.3827 13.1635 99.5435 13.2088C99.7044 13.2545 99.8686 13.288 100.035 13.3088C100.199 13.3292 100.365 13.3394 100.531 13.3394H101.22C101.455 13.3477 101.687 13.2904 101.89 13.1741C102.062 13.0688 102.208 12.9262 102.315 12.7573C102.449 12.8722 102.598 12.9687 102.759 13.0442C102.916 13.1179 103.079 13.1774 103.247 13.222C103.407 13.2643 103.571 13.2943 103.737 13.3116C103.888 13.3276 104.039 13.3359 104.19 13.3366H105.905C106.003 13.3368 106.097 13.2988 106.166 13.2311C106.236 13.1634 106.275 13.0714 106.275 12.9754V8.87086C106.275 8.77875 106.238 8.69042 106.172 8.62528C106.105 8.56015 106.015 8.52355 105.921 8.52355H105.488C105.394 8.52355 105.304 8.56015 105.237 8.62528C105.171 8.69042 105.134 8.77875 105.134 8.87086" fill="white"/>
<path d="M55.2964 20.1337C54.7492 19.9371 54.2757 19.7676 54.2757 19.364C54.2757 18.9945 54.5798 18.7736 55.0894 18.7736C55.4456 18.775 55.7947 18.8711 56.0996 19.0515C56.1378 19.0782 56.1815 19.0963 56.2277 19.1048C56.2738 19.1132 56.3213 19.1118 56.3668 19.1005C56.4123 19.0892 56.4548 19.0683 56.4913 19.0394C56.5277 19.0104 56.5573 18.974 56.578 18.9327L56.668 18.7861C56.6956 18.7439 56.7141 18.6966 56.7222 18.6472C56.7304 18.5977 56.7281 18.5471 56.7155 18.4986C56.7017 18.4588 56.6796 18.4222 56.6507 18.3911C56.6218 18.3601 56.5867 18.3351 56.5475 18.318C56.1245 18.0622 55.6361 17.9295 55.1391 17.9352C54.2176 17.9352 53.2875 18.3832 53.2875 19.3835C53.2875 20.3476 54.1275 20.6526 54.8683 20.9214C55.4127 21.1194 55.8826 21.2903 55.8826 21.6855C55.8826 22.0682 55.5672 22.3058 55.059 22.3058C54.6217 22.2978 54.1971 22.1602 53.8412 21.9113C53.6214 21.7939 53.4775 21.8161 53.345 21.9883L53.2457 22.1273C53.2146 22.1621 53.1917 22.2031 53.1787 22.2475C53.1656 22.2919 53.1626 22.3387 53.17 22.3843C53.1773 22.43 53.1949 22.4735 53.2213 22.5118C53.2478 22.5501 53.2825 22.5822 53.323 22.6059C53.8188 22.9608 54.418 23.15 55.032 23.1456C56.1166 23.1456 56.875 22.5378 56.875 21.6681C56.875 20.7012 56.0386 20.4018 55.3007 20.1399" fill="white"/>
<path d="M60.7349 17.935C60.1585 17.9346 59.5917 18.0795 59.089 18.3559C59.0454 18.3762 59.0069 18.4056 58.9764 18.4422C58.9458 18.4788 58.924 18.5215 58.9124 18.5674C58.9008 18.6133 58.8997 18.6611 58.9093 18.7074C58.9189 18.7538 58.9388 18.7974 58.9677 18.8352L59.0479 18.9742C59.0696 19.0159 59.1001 19.0526 59.1373 19.0821C59.1745 19.1115 59.2176 19.1329 59.2638 19.1449C59.31 19.1569 59.3583 19.1592 59.4055 19.1517C59.4527 19.1442 59.4977 19.127 59.5377 19.1013C59.8774 18.9072 60.2623 18.8018 60.6555 18.795C60.8002 18.7755 60.9475 18.7892 61.0858 18.8349C61.2242 18.8807 61.3498 18.9573 61.4529 19.0587C61.5559 19.16 61.6336 19.2835 61.6797 19.4192C61.7258 19.555 61.7392 19.6994 61.7188 19.841V19.9369H61.4877C58.9798 19.9369 58.4531 20.8719 58.4531 21.6568C58.4612 21.867 58.5129 22.0734 58.6049 22.2634C58.6969 22.4535 58.8274 22.6232 58.9885 22.7623C59.1495 22.9014 59.3377 23.007 59.5417 23.0726C59.7456 23.1382 59.9611 23.1625 60.1749 23.144C60.503 23.1392 60.8242 23.0503 61.1063 22.8862C61.3885 22.722 61.6219 22.4883 61.7833 22.2083C61.7772 22.2672 61.7741 22.3263 61.7741 22.3855V22.6765C61.7685 22.7241 61.774 22.7723 61.7901 22.8176C61.8063 22.8628 61.8327 22.9039 61.8673 22.9377C61.9019 22.9715 61.944 22.9972 61.9902 23.0128C62.0364 23.0284 62.0856 23.0336 62.1342 23.028H62.383C62.4315 23.0335 62.4806 23.0283 62.5268 23.0126C62.5729 22.9969 62.6148 22.9712 62.6494 22.9374C62.684 22.9036 62.7103 22.8625 62.7264 22.8174C62.7425 22.7722 62.748 22.7241 62.7424 22.6765V19.8904C62.7694 19.6259 62.7358 19.3588 62.6441 19.1087C62.5524 18.8585 62.4048 18.6317 62.2122 18.4445C62.0195 18.2574 61.7867 18.1148 61.5306 18.0272C61.2745 17.9395 61.0017 17.9089 60.7321 17.9378L60.7349 17.935ZM61.7245 20.6197V20.8024C61.7457 21.1763 61.6194 21.5438 61.3717 21.8289C61.124 22.114 60.774 22.2949 60.394 22.334C60.2834 22.3461 60.1714 22.3359 60.065 22.3039C59.9586 22.272 59.86 22.219 59.7753 22.1482C59.6906 22.0775 59.6216 21.9904 59.5726 21.8925C59.5235 21.7946 59.4955 21.6879 59.4902 21.579C59.4902 21.3414 59.4902 20.6197 61.4976 20.6197H61.7245Z" fill="white"/>
<path d="M66.4597 22.1577C66.2371 22.1368 66.0308 22.0472 66.0308 21.5381V16.4611C66.0364 16.4135 66.0309 16.3654 66.0148 16.3202C65.9987 16.275 65.9724 16.234 65.9378 16.2002C65.9033 16.1664 65.8614 16.1407 65.8152 16.125C65.7691 16.1093 65.72 16.1041 65.6715 16.1096H65.3659C65.3173 16.1034 65.2678 16.1081 65.2214 16.1235C65.1749 16.139 65.1327 16.1647 65.098 16.1987C65.0633 16.2326 65.037 16.2739 65.0211 16.3194C65.0052 16.3649 65.0003 16.4134 65.0065 16.4611V21.6541C65.0065 22.589 65.4687 23.0635 66.3803 23.0635C66.4304 23.0705 66.4814 23.066 66.5294 23.0504C66.5774 23.0348 66.6211 23.0085 66.657 22.9735C66.6928 22.9386 66.7199 22.896 66.7361 22.849C66.7523 22.8021 66.7572 22.7521 66.7503 22.703V22.4696C66.7534 22.4304 66.7483 22.391 66.7354 22.3538C66.7225 22.3166 66.7019 22.2824 66.6751 22.2532C66.6482 22.224 66.6156 22.2005 66.5792 22.1841C66.5428 22.1677 66.5033 22.1587 66.4632 22.1577" fill="white"/>
<path d="M70.4736 17.935C69.8971 17.9346 69.3303 18.0795 68.8276 18.3559C68.784 18.3762 68.7456 18.4056 68.715 18.4422C68.6845 18.4788 68.6626 18.5215 68.651 18.5674C68.6394 18.6133 68.6384 18.6611 68.6479 18.7074C68.6575 18.7538 68.6775 18.7974 68.7064 18.8352L68.7865 18.9742C68.8082 19.0159 68.8387 19.0526 68.8759 19.0821C68.9131 19.1115 68.9562 19.1329 69.0024 19.1449C69.0487 19.1569 69.0969 19.1592 69.1441 19.1517C69.1913 19.1442 69.2363 19.127 69.2763 19.1013C69.6161 18.9072 70.001 18.8018 70.3942 18.795C70.5388 18.7755 70.6861 18.7892 70.8245 18.8349C70.9628 18.8807 71.0885 18.9573 71.1915 19.0587C71.2946 19.16 71.3722 19.2835 71.4183 19.4192C71.4645 19.555 71.4779 19.6994 71.4574 19.841V19.9369H71.2299C68.722 19.9369 68.1953 20.8719 68.1953 21.6568C68.2034 21.867 68.2551 22.0734 68.3471 22.2634C68.4391 22.4535 68.5696 22.6232 68.7306 22.7623C68.8917 22.9014 69.0799 23.007 69.2839 23.0726C69.4878 23.1382 69.7033 23.1625 69.9171 23.144C70.2452 23.1391 70.5663 23.0502 70.8485 22.8861C71.1307 22.7219 71.3641 22.4883 71.5255 22.2083C71.5193 22.2672 71.5163 22.3263 71.5163 22.3855V22.6765C71.5107 22.7241 71.5162 22.7722 71.5323 22.8174C71.5484 22.8625 71.5747 22.9036 71.6093 22.9374C71.6438 22.9712 71.6858 22.9969 71.7319 23.0126C71.778 23.0283 71.8272 23.0335 71.8757 23.028H72.1245C72.173 23.0335 72.2221 23.0283 72.2683 23.0126C72.3144 22.9969 72.3563 22.9712 72.3909 22.9374C72.4254 22.9036 72.4517 22.8625 72.4678 22.8174C72.4839 22.7722 72.4894 22.7241 72.4838 22.6765V19.8904C72.5109 19.6259 72.4773 19.3588 72.3856 19.1087C72.2939 18.8585 72.1463 18.6317 71.9536 18.4445C71.761 18.2574 71.5281 18.1148 71.2721 18.0272C71.016 17.9395 70.7432 17.9089 70.4736 17.9378V17.935ZM71.4659 20.6197V20.8024C71.4871 21.1763 71.3608 21.5438 71.1132 21.8289C70.8655 22.114 70.5154 22.2949 70.1354 22.334C70.0248 22.3461 69.9129 22.3359 69.8065 22.3039C69.7001 22.272 69.6015 22.219 69.5168 22.1482C69.4321 22.0775 69.3631 21.9904 69.3141 21.8925C69.265 21.7946 69.237 21.6879 69.2317 21.579C69.2317 21.3414 69.2317 20.6197 71.2391 20.6197H71.4659Z" fill="white"/>
<path d="M80.7571 17.9346C80.3886 17.9443 80.0293 18.0498 79.7159 18.2402C79.4026 18.4305 79.1464 18.699 78.9736 19.0182C78.9028 18.6834 78.7069 18.3866 78.4243 18.1861C78.1416 17.9857 77.7927 17.8959 77.4461 17.9346C77.0921 17.9493 76.748 18.0534 76.4472 18.2368C76.1464 18.4202 75.8991 18.6767 75.7292 18.9814C75.7346 18.9341 75.7374 18.8865 75.7377 18.839V18.4021C75.7439 18.3544 75.7388 18.306 75.7229 18.2606C75.707 18.2152 75.6807 18.1739 75.646 18.14C75.6113 18.1061 75.5691 18.0803 75.5228 18.0649C75.4764 18.0494 75.427 18.0445 75.3784 18.0506H75.0998C75.0513 18.045 75.0021 18.0503 74.956 18.066C74.9099 18.0817 74.868 18.1074 74.8334 18.1412C74.7988 18.175 74.7725 18.216 74.7564 18.2612C74.7403 18.3064 74.7348 18.3545 74.7404 18.4021V22.6733C74.7348 22.7208 74.7403 22.769 74.7564 22.8141C74.7725 22.8593 74.7988 22.9004 74.8334 22.9342C74.868 22.968 74.9099 22.9937 74.956 23.0094C75.0021 23.0251 75.0513 23.0303 75.0998 23.0248H75.4081C75.4567 23.0309 75.5061 23.026 75.5525 23.0105C75.5989 22.995 75.6411 22.9693 75.6758 22.9354C75.7104 22.9015 75.7368 22.8602 75.7527 22.8148C75.7686 22.7693 75.7737 22.721 75.7675 22.6733V20.7048C75.7675 19.7941 76.3211 18.8522 77.2469 18.8522C77.9472 18.8522 78.0904 19.3329 78.0904 20.0539V22.6747C78.0837 22.7216 78.0881 22.7694 78.1031 22.8144C78.1182 22.8594 78.1436 22.9004 78.1773 22.9343C78.211 22.9683 78.2522 22.9941 78.2977 23.0101C78.3432 23.026 78.3919 23.0315 78.4399 23.0262H78.7582C78.8062 23.0316 78.8549 23.0262 78.9005 23.0103C78.9461 22.9944 78.9874 22.9686 79.0213 22.9346C79.0551 22.9007 79.0805 22.8596 79.0956 22.8146C79.1107 22.7695 79.115 22.7217 79.1083 22.6747V20.7048C79.1083 19.7941 79.6548 18.8522 80.5686 18.8522C81.3185 18.8522 81.4192 19.4294 81.4192 20.0539V22.6747C81.4136 22.7222 81.4191 22.7704 81.4352 22.8155C81.4513 22.8607 81.4776 22.9018 81.5122 22.9356C81.5467 22.9694 81.5887 22.995 81.6348 23.0107C81.6809 23.0264 81.7301 23.0317 81.7786 23.0262H82.0862C82.1348 23.0323 82.1842 23.0274 82.2306 23.0119C82.277 22.9964 82.3192 22.9707 82.3539 22.9368C82.3885 22.9028 82.4148 22.8616 82.4307 22.8162C82.4466 22.7707 82.4517 22.7224 82.4456 22.6747V19.8497C82.4456 18.5618 81.8927 17.936 80.7536 17.936" fill="white"/>
<path d="M86.8469 22.1576C86.2238 22.1082 85.9211 21.7561 85.9211 21.0816V18.9283H86.7718C86.8195 18.9325 86.8677 18.9262 86.9127 18.9099C86.9577 18.8936 86.9984 18.8677 87.0319 18.8341C87.0653 18.8004 87.0907 18.7598 87.1062 18.7153C87.1216 18.6708 87.1268 18.6234 87.1212 18.5767V18.4503C87.1268 18.4028 87.1213 18.3547 87.1052 18.3095C87.0891 18.2643 87.0628 18.2233 87.0282 18.1895C86.9937 18.1557 86.9517 18.13 86.9056 18.1143C86.8595 18.0986 86.8103 18.0933 86.7618 18.0989H85.9183V17.052C85.9239 17.0047 85.9183 16.9567 85.9022 16.9118C85.886 16.8668 85.8596 16.8261 85.825 16.7926C85.7904 16.7591 85.7484 16.7338 85.7023 16.7186C85.6562 16.7034 85.6072 16.6986 85.5589 16.7047H85.2704C85.2223 16.6993 85.1736 16.7045 85.1278 16.72C85.082 16.7355 85.0403 16.7608 85.0059 16.7941C84.9714 16.8274 84.945 16.8679 84.9285 16.9125C84.9121 16.9572 84.9061 17.0048 84.911 17.052V18.0989H84.5849C84.5364 18.0932 84.4872 18.0984 84.4409 18.114C84.3947 18.1297 84.3527 18.1553 84.3181 18.1892C84.2834 18.223 84.257 18.264 84.2409 18.3093C84.2247 18.3545 84.2193 18.4027 84.2248 18.4503V18.5767C84.2193 18.6234 84.2244 18.6708 84.2399 18.7153C84.2553 18.7598 84.2807 18.8004 84.3142 18.8341C84.3477 18.8677 84.3884 18.8936 84.4334 18.9099C84.4784 18.9262 84.5266 18.9325 84.5743 18.9283H84.8912V21.2275C84.8759 21.4748 84.9148 21.7225 85.0053 21.9539C85.0959 22.1853 85.2359 22.395 85.416 22.569C85.596 22.7429 85.812 22.8771 86.0494 22.9625C86.2868 23.0479 86.5401 23.0825 86.7923 23.064C87.0808 23.064 87.2211 22.9494 87.2211 22.7132V22.509C87.2211 22.2708 87.1219 22.1791 86.844 22.1617" fill="white"/>
<path d="M91.2406 17.9344C90.8944 17.9259 90.5502 17.9882 90.23 18.1175C89.9097 18.2467 89.6205 18.4399 89.3808 18.6849C89.141 18.9298 88.956 19.221 88.8376 19.54C88.7192 19.8589 88.67 20.1985 88.693 20.5371C88.6835 20.8846 88.747 21.2303 88.8795 21.5528C89.0119 21.8753 89.2106 22.1676 89.4632 22.4118C89.7158 22.6559 90.0168 22.8465 90.3477 22.9719C90.6786 23.0973 91.0322 23.1547 91.3867 23.1406C92.0001 23.1385 92.5985 22.9542 93.1028 22.612C93.1439 22.5907 93.1798 22.5611 93.2083 22.5252C93.2368 22.4893 93.2571 22.4478 93.268 22.4036C93.2842 22.3128 93.2644 22.2194 93.2127 22.1424L93.1233 21.9965C93.1029 21.9527 93.0725 21.9141 93.0345 21.8835C92.9965 21.853 92.9519 21.8313 92.9041 21.8201C92.8563 21.8089 92.8065 21.8085 92.7585 21.819C92.7106 21.8295 92.6656 21.8505 92.6271 21.8805C92.2826 22.1252 91.8689 22.2587 91.4434 22.2626C91.2238 22.2692 91.0051 22.233 90.7999 22.156C90.5947 22.079 90.4073 21.9628 90.2484 21.8141C90.0896 21.6654 89.9625 21.4872 89.8746 21.2899C89.7867 21.0926 89.7398 20.8802 89.7365 20.6649H93.0645C93.1131 20.6656 93.1613 20.6567 93.2063 20.6388C93.2513 20.621 93.2922 20.5944 93.3267 20.5609C93.3611 20.5273 93.3882 20.4873 93.4066 20.4432C93.4251 20.3992 93.4343 20.352 93.4338 20.3044C93.4338 18.8422 92.591 17.9337 91.2364 17.9337L91.2406 17.9344ZM89.7825 19.9821C89.8238 19.6378 89.9927 19.3203 90.257 19.0898C90.5213 18.8594 90.8627 18.732 91.2165 18.7318C91.3806 18.7303 91.5433 18.7623 91.6941 18.8258C91.8448 18.8892 91.9805 18.9827 92.0924 19.1003C92.2044 19.2179 92.2901 19.357 92.3442 19.5088C92.3983 19.6606 92.4196 19.8218 92.4067 19.9821H89.7825Z" fill="white"/>
<path d="M99.6412 21.9193C99.6192 21.8786 99.589 21.8427 99.5525 21.8137C99.5159 21.7847 99.4738 21.7632 99.4286 21.7505C99.3796 21.7436 99.3297 21.7466 99.2819 21.7592C99.2341 21.7719 99.1895 21.794 99.1507 21.8241C98.7913 22.1049 98.3464 22.2599 97.8868 22.2645C97.6542 22.2698 97.4229 22.2282 97.2074 22.1423C96.9918 22.0565 96.7964 21.9282 96.6334 21.7655C96.4705 21.6027 96.3433 21.4089 96.2598 21.196C96.1763 20.9832 96.1383 20.7558 96.148 20.528C96.1378 20.3026 96.1751 20.0775 96.2574 19.8669C96.3398 19.6562 96.4655 19.4644 96.6267 19.3033C96.7879 19.1423 96.9812 19.0154 97.1946 18.9307C97.408 18.846 97.6368 18.8052 97.867 18.8109C98.2664 18.8144 98.6543 18.9421 98.9749 19.1756C99.1876 19.2964 99.34 19.27 99.4647 19.0887L99.5633 18.9435C99.5956 18.9043 99.6194 18.8592 99.6333 18.8107C99.6472 18.7622 99.6508 18.7114 99.6441 18.6615C99.6346 18.6206 99.6167 18.5822 99.5915 18.5483C99.5663 18.5145 99.5342 18.4861 99.4974 18.4649C99.0141 18.1082 98.4223 17.9212 97.8173 17.9342C97.4648 17.9286 97.1148 17.9918 96.7874 18.1201C96.4601 18.2483 96.1621 18.4392 95.9108 18.6815C95.6594 18.9237 95.4598 19.2126 95.3236 19.5312C95.1874 19.8498 95.1172 20.1919 95.1172 20.5373C95.1172 20.8828 95.1874 21.2248 95.3236 21.5434C95.4598 21.8621 95.6594 22.151 95.9108 22.3932C96.1621 22.6355 96.4601 22.8264 96.7874 22.9546C97.1148 23.0829 97.4648 23.1461 97.8173 23.1405C98.4734 23.1491 99.1123 22.9346 99.6249 22.5334C99.6646 22.5108 99.699 22.4803 99.7259 22.4438C99.7528 22.4074 99.7715 22.3658 99.781 22.3218C99.7904 22.2777 99.7902 22.2323 99.7806 22.1883C99.7709 22.1444 99.752 22.1029 99.7249 22.0666L99.6412 21.9193Z" fill="white"/>
<path d="M104.569 17.9344C104.195 17.933 103.827 18.0279 103.502 18.2096C103.177 18.3912 102.906 18.6531 102.716 18.9693C102.724 18.8964 102.731 18.7971 102.731 18.6832V16.4604C102.737 16.4135 102.733 16.3657 102.718 16.3208C102.703 16.2758 102.678 16.2348 102.644 16.2009C102.61 16.1671 102.569 16.1412 102.523 16.1254C102.478 16.1096 102.429 16.1041 102.381 16.1096H102.073C102.024 16.1034 101.975 16.1082 101.929 16.1236C101.882 16.139 101.84 16.1646 101.805 16.1985C101.77 16.2324 101.744 16.2736 101.728 16.319C101.712 16.3644 101.707 16.4127 101.713 16.4604V22.6731C101.707 22.7207 101.712 22.7691 101.728 22.8146C101.744 22.86 101.771 22.9013 101.805 22.9352C101.84 22.9691 101.882 22.9948 101.928 23.0103C101.975 23.0258 102.024 23.0307 102.073 23.0246H102.381C102.429 23.0299 102.478 23.0244 102.523 23.0085C102.569 22.9926 102.61 22.9666 102.644 22.9327C102.678 22.8988 102.703 22.8578 102.718 22.8128C102.733 22.7678 102.737 22.72 102.731 22.6731V20.6635C102.71 20.4373 102.738 20.2093 102.811 19.9938C102.884 19.7783 103.002 19.5798 103.156 19.4105C103.311 19.2413 103.499 19.1049 103.71 19.0097C103.92 18.9146 104.148 18.8628 104.38 18.8575C105.191 18.8575 105.302 19.4354 105.302 20.0599V22.671C105.296 22.7187 105.301 22.7671 105.317 22.8125C105.332 22.8579 105.359 22.8992 105.393 22.9331C105.428 22.967 105.47 22.9927 105.517 23.0082C105.563 23.0237 105.612 23.0286 105.661 23.0225H105.97C106.019 23.028 106.068 23.0227 106.114 23.007C106.16 22.9914 106.202 22.9657 106.237 22.9319C106.271 22.8981 106.297 22.857 106.313 22.8119C106.33 22.7667 106.335 22.7186 106.329 22.671V19.846C106.329 18.5581 105.753 17.9323 104.567 17.9323" fill="white"/>
<path d="M46.0782 14.5548C46.0791 14.4827 46.0655 14.4111 46.0382 14.3442C46.0109 14.2773 45.9705 14.2163 45.9191 14.1647C45.8678 14.1131 45.8066 14.0719 45.739 14.0435C45.6714 14.015 45.5988 13.9999 45.5252 13.999H25.7483C25.618 14.0003 25.4922 14.0463 25.393 14.1291C25.2938 14.2118 25.2274 14.3261 25.2053 14.4519H25.2011C25.2011 14.4651 25.2011 14.4776 25.2011 14.4908C25.1987 14.5113 25.1975 14.532 25.1975 14.5526V14.5776C25.1135 17.485 23.8846 20.2477 21.7683 22.2869C19.652 24.3262 16.8125 25.4838 13.8446 25.5173C12.4782 25.5186 11.1232 25.2725 9.84804 24.7914C9.74883 24.7544 9.64074 24.7468 9.53714 24.7695C9.43355 24.7922 9.339 24.8443 9.26535 24.9192L8.21558 25.973C8.15145 26.0374 8.10404 26.116 8.07739 26.2022C8.05074 26.2884 8.04561 26.3795 8.06242 26.468C8.07923 26.5565 8.11754 26.6398 8.17404 26.7108C8.23054 26.7818 8.30357 26.8384 8.38708 26.876C10.1069 27.6184 11.9659 28.0012 13.8453 27.9998C17.1384 27.9695 20.3144 26.7984 22.811 24.6939C25.3077 22.5895 26.9641 19.6873 27.4871 16.5011H42.2681L38.9173 19.8638C38.8134 19.9692 38.7553 20.11 38.7553 20.2566C38.7553 20.4031 38.8134 20.5439 38.9173 20.6494L39.8984 21.6336C39.9491 21.6847 40.0097 21.7253 40.0766 21.7531C40.1436 21.7808 40.2155 21.7951 40.2882 21.7951C40.3609 21.7951 40.4329 21.7808 40.4999 21.7531C40.5668 21.7253 40.6274 21.6847 40.6781 21.6336L45.886 16.4073C45.995 16.276 46.0599 16.1149 46.0718 15.9461L46.0782 14.5548Z" fill="white"/>
<path d="M13.3003 2.72146C13.4432 2.71186 13.5768 2.64884 13.6737 2.54543C13.7705 2.44201 13.8231 2.30608 13.8206 2.16574V0.773721C13.8221 0.699818 13.8082 0.62639 13.7799 0.557902C13.7515 0.489415 13.7091 0.427297 13.6555 0.375322C13.6019 0.323347 13.538 0.282614 13.4678 0.255574C13.3976 0.228533 13.3226 0.215757 13.2472 0.218032C9.63982 0.416832 6.24965 1.97121 3.78231 4.55762C1.31496 7.14404 -0.0394936 10.5632 0.000877205 14.1035C-0.00285608 16.0845 0.41881 18.0442 1.23851 19.855C1.27433 19.9356 1.32984 20.0062 1.40015 20.0607C1.47045 20.1152 1.55335 20.1519 1.64156 20.1676C1.72978 20.1833 1.82065 20.1774 1.906 20.1505C1.99135 20.1236 2.06861 20.0765 2.13098 20.0134L3.17435 18.9659C3.25098 18.888 3.30316 18.7901 3.32465 18.684C3.34614 18.5778 3.33604 18.4678 3.29558 18.3671C2.75363 17.0119 2.47663 15.5689 2.479 14.1133C2.44663 11.2166 3.55184 8.41861 5.56594 6.29819C7.58004 4.17776 10.3489 2.89721 13.2996 2.72146" fill="white"/>
<path fill-rule="evenodd" clip-rule="evenodd" d="M13.5527 19.6338C14.679 19.6606 15.7878 19.3578 16.7376 18.7641C17.6874 18.1704 18.4351 17.3127 18.8851 16.3007C19.3351 15.2886 19.4671 14.168 19.2641 13.0821C19.0611 11.9962 18.5324 10.9942 17.7455 10.2042C16.9586 9.41412 15.9493 8.87185 14.8464 8.6466C13.7435 8.42135 12.5971 8.52336 11.5537 8.9396C10.5103 9.35584 9.61712 10.0674 8.98835 10.9834C8.35958 11.8995 8.02377 12.9784 8.02372 14.0823C8.00894 15.5361 8.58235 16.9363 9.61854 17.9767C10.6547 19.0171 12.0693 19.6129 13.5527 19.6338Z" fill="white"/>
<path fill-rule="evenodd" clip-rule="evenodd" d="M4.33269 14.0834C4.37621 15.8609 4.95392 17.5863 5.99345 19.0435C7.03298 20.5008 8.48808 21.6251 10.1766 22.2757C11.8652 22.9263 13.7121 23.0743 15.4861 22.7011C17.2601 22.3279 18.8823 21.4501 20.1496 20.1777C21.4169 18.9053 22.2729 17.2948 22.6105 15.5479C22.9481 13.8009 22.7523 11.9952 22.0475 10.3569C21.3427 8.71849 20.1602 7.32031 18.6483 6.33738C17.1364 5.35445 15.3621 4.83047 13.5477 4.83106C11.0739 4.86127 8.71359 5.85285 6.9856 7.58784C5.2576 9.32283 4.30337 11.6592 4.33269 14.0834ZM13.5477 21.4853C12.046 21.5211 10.5675 21.1174 9.30104 20.3258C8.03456 19.5342 7.03758 18.3906 6.43752 17.0411C5.83746 15.6916 5.66154 14.1975 5.93219 12.7496C6.20283 11.3016 6.90777 9.96561 7.95698 8.91216C9.00619 7.8587 10.352 7.13562 11.8226 6.83528C13.2932 6.53495 14.8217 6.67097 16.213 7.22601C17.6043 7.78104 18.7953 8.72989 19.6336 9.95133C20.472 11.1728 20.9198 12.6114 20.9198 14.0834C20.9435 16.0224 20.1805 17.8913 18.7987 19.2794C17.4169 20.6674 15.5293 21.4611 13.5506 21.486L13.5477 21.4853Z" fill="white"/>
<path fill-rule="evenodd" clip-rule="evenodd" d="M13.5735 14.812C13.7051 14.8152 13.8347 14.7798 13.9457 14.7105C14.0567 14.6412 14.1441 14.541 14.1967 14.4228C14.2493 14.3045 14.2648 14.1736 14.2411 14.0468C14.2174 13.9199 14.1557 13.8028 14.0638 13.7104C13.9719 13.6181 13.854 13.5547 13.7251 13.5283C13.5963 13.502 13.4624 13.5139 13.3404 13.5625C13.2185 13.6111 13.1141 13.6942 13.0406 13.8012C12.9671 13.9082 12.9278 14.0343 12.9278 14.1633C12.9261 14.3331 12.9931 14.4966 13.1141 14.6182C13.2351 14.7398 13.4003 14.8095 13.5735 14.812Z" fill="white"/>
</svg>
