<svg id="Layer_1" data-name="Layer 1" xmlns="http://www.w3.org/2000/svg" viewBox="0 0 417.18 429.18"><defs><style>.cls-1{fill:#231f20;}.cls-2{fill:#c39c5f;}.cls-3{fill:#fff;}</style></defs><title>app d</title><rect class="cls-1" x="24.71" y="24.03" width="370.59" height="376.18" rx="37.06"/><path class="cls-2" d="M73.94,343.77l-2.15,2v13.87H67.24v-31.5h4.55v16.1l17.59-16.1h1.53l-13.6,12.77,18.42,18.73H89.47Z"/><path class="cls-2" d="M111.49,332.35a14.36,14.36,0,0,1,10.72-4.24,14.67,14.67,0,0,1,10.81,4.2c3.19,2.8,4.77,6.65,4.77,11.5a15.08,15.08,0,0,1-4.55,11.42,14.2,14.2,0,0,1-11,4.38,14.23,14.23,0,0,1-10.86-4.38,15.26,15.26,0,0,1-4.63-11.59A14.47,14.47,0,0,1,111.49,332.35Zm3.33,22.44c2,2.46,3.85,3.68,7.74,3.68a8.84,8.84,0,0,0,7.61-3.68c2-2.45,2.45-6.08,2.45-10.93s-.43-8.36-2.4-10.85a9.14,9.14,0,0,0-8-3.77c-3.63,0-5.42,1.23-7.39,3.68s-2.89,6.08-2.89,10.89S112.89,352.34,114.82,354.79Z"/><path class="cls-2" d="M163.75,328.11a25.56,25.56,0,0,1,7.22.74,9.42,9.42,0,0,1,4.5,2.54,6.48,6.48,0,0,1,1.71,4.5A6.94,6.94,0,0,1,175,341.1a11.83,11.83,0,0,1-6.61,3c1.27.61,3.37,1.44,6.26,5.33a51.9,51.9,0,0,1,5.2,10.2h-3.58c-.35-1.45-5-15-13.52-15h-1.36v15h-4.46v-31.5ZM165,343.59a10.31,10.31,0,0,0,3.15-.7,5.12,5.12,0,0,0,2.18-1.4,5.19,5.19,0,0,0,1.32-2.05,8.3,8.3,0,0,0,.48-3.11,7.69,7.69,0,0,0-1.62-5.16c-1.09-1.31-3.59-1.75-7.22-1.75h-2v14.17Z"/><path class="cls-2" d="M210.66,328.11h-1.24L191.6,371.2h2.23l13.89-35.45s12.37,30,14.6,35.47H229Z"/><path class="cls-2" d="M268,352a8.3,8.3,0,0,1-3.24,6,9.81,9.81,0,0,1-7.13,1.66,12.69,12.69,0,0,1-8.4-5.43l.83-.92c2.36,3.37,4.15,4.69,7.3,5.21a6.22,6.22,0,0,0,5.12-1.27,5.58,5.58,0,0,0,2.15-3.85,5.09,5.09,0,0,0-1.1-3.94,19.78,19.78,0,0,0-5.25-3.8,48.42,48.42,0,0,1-5.16-3.33,8.57,8.57,0,0,1-2.54-3.32,8.24,8.24,0,0,1-.57-4.07,7,7,0,0,1,2.8-5.12,7.92,7.92,0,0,1,5.87-1.53,10.55,10.55,0,0,1,3.5,1,9.4,9.4,0,0,1,3.19,2.93l-1,.79a10.81,10.81,0,0,0-.88-1.14,6.89,6.89,0,0,0-4.72-2.49,4.78,4.78,0,0,0-4.07,1,4.71,4.71,0,0,0-1.62,3.06,4.66,4.66,0,0,0,1.22,3.67,21.51,21.51,0,0,0,5.25,3.9,50.22,50.22,0,0,1,5.3,3.37,7.58,7.58,0,0,1,2.54,3.19A8.77,8.77,0,0,1,268,352Z"/><path class="cls-2" d="M320.88,328.11v31.5h-4.55v-16h-16.8v16H295v-31.5h4.55V342.5h16.8V328.11Z"/><path class="cls-2" d="M352.56,328.18v31.5H348v-31.5Z"/><path class="cls-2" d="M68.61,385.36,64.29,381l4.32-4.27,4.3,4.27Z"/><path class="cls-2" d="M94.8,385.41l-4.32-4.35,4.32-4.28,4.3,4.28Z"/><path class="cls-2" d="M121,385.5l-4.32-4.35,4.32-4.27,4.3,4.27Z"/><path class="cls-2" d="M147.15,385.65l-4.32-4.35,4.32-4.28,4.3,4.28Z"/><path class="cls-2" d="M173.35,385.8,169,381.46l4.32-4.28,4.3,4.27Z"/><path class="cls-2" d="M246.94,385.81l-4.32-4.35,4.32-4.28,4.3,4.28Z"/><path class="cls-2" d="M273.13,385.85l-4.32-4.35,4.32-4.27,4.3,4.27Z"/><path class="cls-2" d="M299.29,385.94,295,381.59l4.32-4.27,4.3,4.27Z"/><path class="cls-2" d="M325.48,386.09l-4.32-4.35,4.32-4.27,4.3,4.27Z"/><path class="cls-2" d="M351.68,386.25l-4.32-4.35,4.32-4.27,4.3,4.27Z"/><path class="cls-2" d="M208.11,375.79l-4.32-4.35,4.32-4.27,4.3,4.27Z"/><polygon class="cls-2" points="365.21 363.43 360.61 367.98 221.54 368.04 221.01 368.04 222.47 371.56 222.7 371.56 362.09 371.56 367.79 365.93 365.21 363.43"/><polygon class="cls-2" points="54.79 363.38 52.21 365.88 57.96 371.55 58.11 371.55 193.72 371.55 195.06 367.95 59.43 367.97 54.79 363.38"/><rect class="cls-2" x="162.54" y="158" width="48.06" height="15.3"/><rect class="cls-3" x="211.54" y="157.97" width="48.07" height="15.3"/><polygon class="cls-3" points="94.14 173.44 165.44 173.4 165.41 202.59 180.79 215.46 180.9 77.45 165.52 92.21 165.46 158 100.1 158.06 94.14 173.44"/><polygon class="cls-2" points="314.86 157.86 256.37 157.9 256.4 130.18 241.01 117.3 240.91 249.46 256.29 232.72 256.35 173.3 301.42 173.24 314.86 157.86"/><polygon class="cls-2" points="218.7 51.27 203.32 51.55 203.21 278.15 218.59 277.2 218.7 51.27"/><path class="cls-2" d="M210.91,294.67,82.4,165.18,210.91,38l128,127.19ZM99.66,165.26,210.89,277.33,321.66,165.25,210.89,55.17Z"/><polygon class="cls-3" points="210.9 38.02 210.88 55.21 321.65 165.29 210.88 277.37 210.9 294.7 338.88 165.21 210.9 38.02"/><rect class="cls-3" x="256.56" y="157.99" width="70.48" height="15.3"/></svg>