<svg width="30" height="30" viewBox="0 0 30 30" fill="none" xmlns="http://www.w3.org/2000/svg">
<path d="M15 0.9375C12.265 0.9375 9.64193 2.02399 7.70796 3.95796C5.77399 5.89193 4.6875 8.51496 4.6875 11.25C4.6875 16.6969 13.875 28.2188 14.2688 28.7156C14.3566 28.8251 14.4679 28.9135 14.5945 28.9742C14.721 29.0349 14.8596 29.0665 15 29.0665C15.1404 29.0665 15.279 29.0349 15.4055 28.9742C15.5321 28.9135 15.6434 28.8251 15.7313 28.7156C16.125 28.2188 25.3125 16.6969 25.3125 11.25C25.3125 8.51496 24.226 5.89193 22.292 3.95796C20.3581 2.02399 17.735 0.9375 15 0.9375ZM15 26.6063C12.1031 22.8563 6.5625 14.8875 6.5625 11.25C6.5625 9.01224 7.45145 6.86613 9.03379 5.28379C10.6161 3.70145 12.7622 2.8125 15 2.8125C17.2378 2.8125 19.3839 3.70145 20.9662 5.28379C22.5486 6.86613 23.4375 9.01224 23.4375 11.25C23.4375 14.8875 17.8969 22.8375 15 26.6063Z" fill="#03BBB4" stroke="#03BBB4" stroke-width="0.25"/>
<path d="M15 4.6875C13.8875 4.6875 12.7999 5.0174 11.8749 5.63548C10.9499 6.25357 10.2289 7.13207 9.80318 8.1599C9.37744 9.18774 9.26604 10.3187 9.48309 11.4099C9.70013 12.501 10.2359 13.5033 11.0225 14.29C11.8092 15.0766 12.8115 15.6124 13.9026 15.8294C14.9938 16.0465 16.1248 15.9351 17.1526 15.5093C18.1804 15.0836 19.0589 14.3626 19.677 13.4376C20.2951 12.5126 20.625 11.425 20.625 10.3125C20.625 8.82065 20.0324 7.38992 18.9775 6.33502C17.9226 5.28013 16.4918 4.6875 15 4.6875ZM15 14.0625C14.2583 14.0625 13.5333 13.8426 12.9166 13.4305C12.2999 13.0185 11.8193 12.4328 11.5355 11.7476C11.2516 11.0623 11.1774 10.3083 11.3221 9.58091C11.4668 8.85348 11.8239 8.18529 12.3484 7.66085C12.8728 7.1364 13.541 6.77925 14.2684 6.63455C14.9958 6.48986 15.7498 6.56412 16.4351 6.84795C17.1203 7.13178 17.706 7.61243 18.118 8.22911C18.5301 8.84579 18.75 9.57082 18.75 10.3125C18.75 11.3071 18.3549 12.2609 17.6517 12.9641C16.9484 13.6674 15.9946 14.0625 15 14.0625Z" fill="#03BBB4" stroke="#03BBB4" stroke-width="0.25"/>
</svg>
