<svg width="29" height="29" viewBox="0 0 29 29" fill="none" xmlns="http://www.w3.org/2000/svg">
<circle cx="14.1064" cy="14.1064" r="14.1064" fill="#262D70" fill-opacity="0.15"/>
<path d="M10.4016 14.1063C10.0518 14.1063 9.76562 13.8154 9.76562 13.4598V7.15697C9.76562 6.80143 10.0518 6.51053 10.4016 6.51053H17.8105C18.1603 6.51053 18.4465 6.80143 18.4465 7.15697V13.4275C18.4465 13.783 18.1603 14.074 17.8105 14.074C17.4607 14.074 17.1746 13.783 17.1746 13.4275V7.7711H11.0375V13.4598C11.0375 13.8154 10.7514 14.1063 10.4016 14.1063Z" fill="#262D70" stroke="#262D70" stroke-width="0.4"/>
<path d="M18.8212 7.77649H9.38981C9.04168 7.77649 8.75684 7.49165 8.75684 7.14351C8.75684 6.79537 9.04168 6.51053 9.38981 6.51053H18.8528C19.201 6.51053 19.4858 6.79537 19.4858 7.14351C19.4858 7.49165 19.1693 7.77649 18.8212 7.77649Z" fill="#262D70" stroke="#262D70" stroke-width="0.4"/>
<path d="M20.9093 21.5434H7.30022C6.95208 21.5434 6.66724 21.2585 6.66724 20.9104V13.6944C6.66724 13.3463 6.95208 13.0614 7.30022 13.0614H20.9409C21.289 13.0614 21.5739 13.3463 21.5739 13.6944V20.9104C21.5422 21.2585 21.2574 21.5434 20.9093 21.5434ZM7.90155 20.309H20.3079V14.3274H7.90155V20.309Z" fill="#262D70" stroke="#262D70" stroke-width="0.4"/>
<path d="M15.6242 21.5431H12.5859C12.2377 21.5431 11.9529 21.2583 11.9529 20.9102V16.7325C11.9529 16.3844 12.2377 16.0995 12.5859 16.0995H15.6242C15.9723 16.0995 16.2571 16.3844 16.2571 16.7325V20.9418C16.2571 21.2583 15.9723 21.5431 15.6242 21.5431V21.5431ZM13.1872 20.3088H14.9912V17.3655H13.1872V20.3088Z" fill="#262D70" stroke="#262D70" stroke-width="0.4"/>
<path d="M14.1032 12.3654C13.7551 12.3654 13.4702 12.0806 13.4702 11.7325V9.01066C13.4702 8.66253 13.7551 8.37769 14.1032 8.37769C14.4513 8.37769 14.7362 8.66253 14.7362 9.01066V11.7325C14.7362 12.1123 14.4513 12.3654 14.1032 12.3654Z" fill="#262D70"/>
<path d="M15.4644 11.0043H12.7426C12.3945 11.0043 12.1096 10.7194 12.1096 10.3713C12.1096 10.0232 12.3945 9.73831 12.7426 9.73831H15.4644C15.8126 9.73831 16.0974 10.0232 16.0974 10.3713C16.0974 10.7194 15.8126 11.0043 15.4644 11.0043V11.0043Z" fill="#262D70"/>
</svg>
