<svg width="13" height="13" viewBox="0 0 13 13" fill="none" xmlns="http://www.w3.org/2000/svg">
<path d="M6.5017 0.393066C6.11965 0.393066 5.80706 0.705522 5.80706 1.08741V2.4761C5.80706 2.85799 6.11965 3.17045 6.5017 3.17045C6.88375 3.17045 7.19633 2.85799 7.19633 2.4761V1.8373C9.49557 2.17059 11.2738 4.09392 11.3641 6.46164C11.4614 9.13487 9.25939 11.4609 6.58505 11.5026C3.85515 11.5442 1.63927 9.35706 1.63927 6.64217C1.63927 5.47567 2.0491 4.40638 2.73679 3.57317L6.00851 6.85047C6.27941 7.12127 6.71703 7.12127 6.98794 6.85047C7.25885 6.57968 7.25885 6.14224 6.98794 5.87145L3.20914 2.10115C2.94518 1.8373 2.5145 1.83036 2.23665 2.08727C1.0141 3.21905 0.25 4.83687 0.25 6.64217C0.25 10.1417 3.12578 12.9746 6.64757 12.8913C9.91234 12.8149 12.6423 10.107 12.7464 6.84353C12.8645 3.30237 10.0235 0.393066 6.5017 0.393066Z" fill="#03BBB4"/>
</svg>
