<svg width="60" height="60" viewBox="0 0 60 60" fill="none" xmlns="http://www.w3.org/2000/svg">
<path d="M59.4026 29.7013C59.4026 38.2023 55.8303 45.8683 50.1061 51.2824L50.1046 51.2831C45.6505 55.4954 39.894 58.3429 33.5017 59.1595L33.4954 59.1624C32.253 59.3208 30.9867 59.4026 29.7013 59.4026C13.2978 59.4026 0 46.1048 0 29.7013C0 13.2978 13.2978 0 29.7013 0C46.1048 0 59.4026 13.2978 59.4026 29.7013Z" fill="#DFE0EB"/>
<g clip-path="url(#clip0_28_4139)">
<path d="M27.8406 15.9647L27.8222 13.9019L25.4975 13.9226L25.5153 15.92C24.9984 15.9671 24.4988 16.0515 24.023 16.1694L22.7722 14.2868L20.8359 15.5735L21.8162 17.0489C21.2317 17.3905 20.7301 17.7953 20.3339 18.2475L18.9933 16.9353L17.3672 18.5968L19.3435 20.5312C19.3403 20.5911 19.3381 20.6511 19.3381 20.7116C19.3381 23.3822 22.5342 25.5471 26.4769 25.5471C30.4196 25.5471 33.6158 23.3821 33.6158 20.7116C33.6157 18.357 31.1309 16.3958 27.8406 15.9647Z" fill="#00D2CA"/>
<path d="M27.1946 23.5492C18.6439 17.0013 7.08479 35.6124 28.3591 45.1691C29.3982 45.6359 30.5239 45.8792 31.6625 45.8792C33.9101 45.8792 36.054 44.9357 37.5816 43.2816C51.7474 27.9423 33.6033 15.7959 28.6965 23.2936C28.3644 23.8012 27.6757 23.9175 27.1946 23.5492Z" fill="white"/>
<path d="M39.7609 40.3756C38.2334 42.0297 36.0894 42.9731 33.8419 42.9731C32.7032 42.9731 31.5776 42.7299 30.5384 42.263C18.6733 36.9331 17.0216 28.7872 19.3645 23.7598C14.6226 27.7893 13.7599 38.6109 28.3589 45.169C29.3981 45.6359 30.5237 45.8791 31.6624 45.8791C33.9099 45.8791 36.0539 44.9356 37.5814 43.2816C38.704 42.066 39.623 40.8706 40.3625 39.7033C40.1686 39.9267 39.9686 40.1507 39.7609 40.3756Z" fill="#E6E7E8"/>
<path d="M44.8966 22.8563L43.2085 21.2579L41.7275 22.822C41.4687 22.332 41.1485 21.8484 40.7701 21.3861L42.3874 19.5542L40.6447 18.0156L39.0802 19.7878C36.9873 18.2749 34.6123 18.0265 33.3432 19.341C31.8253 20.9135 32.4648 24.1255 34.7718 26.5153C37.0787 28.9051 40.1795 29.5676 41.6974 27.9952C42.3247 27.3454 42.5825 26.4154 42.5076 25.3795L44.8966 22.8563Z" fill="#00D2CA"/>
<path d="M19.8457 29.1105C19.8457 29.1105 22.6483 26.9427 26.0654 21.134C27.6382 18.4604 29.697 16.1066 32.1512 14.2159L32.1665 14.2041L35.2104 17.6217L32.7463 20.4576C29.7748 23.8751 32.9637 36.0184 22.7182 32.9889" fill="white"/>
<path d="M33.7823 16.0928L30.2041 19.8035C27.464 22.955 30.2951 32.4389 22.9877 32.4872L22.7188 32.9887C32.9643 36.0182 29.7754 23.8749 32.7469 20.4573L35.211 17.6215L33.7823 16.0928Z" fill="#E6E7E8"/>
<path d="M43.7164 28.9939L41.4547 29.5321C42.1315 32.3762 41.8607 36.9336 36.7267 42.4928C31.3079 48.3602 21.4536 41.0258 18.6491 35.6174C17.2726 32.9626 17.0546 30.1251 18.0352 27.6274C19.0596 25.0183 21.1158 23.4103 23.2762 23.3491C20.9002 26.7827 19.1526 28.1764 19.1312 28.1933L20.5567 30.0297C20.6784 29.9356 23.5766 27.6567 27.0672 21.7231C28.4004 19.4566 30.0687 17.4694 32.0346 15.8037L33.662 17.6309L31.8688 19.6945C30.6914 21.0488 30.3495 23.2133 29.9876 25.505C29.5759 28.112 29.1501 30.8077 27.5386 31.8256C26.5536 32.4477 25.0427 32.4639 23.0474 31.8739L22.3883 34.1034C24.4538 34.7141 26.8652 35.0006 28.78 33.7912C31.2821 32.2108 31.8144 28.8409 32.2839 25.8677C32.5787 24.001 32.8835 22.0706 33.6234 21.2197L36.0876 18.3839C36.4711 17.9426 36.4671 17.285 36.0782 16.8483L33.0344 13.4308C32.629 12.9756 31.9411 12.9111 31.458 13.2822L31.4416 13.2948C28.8767 15.2708 26.7308 17.7099 25.0634 20.5444C24.9425 20.7498 24.8226 20.9501 24.7033 21.1462C23.0351 20.8238 21.3111 21.1339 19.7624 22.0503C18.0529 23.0618 16.671 24.7408 15.8713 26.7777C14.6419 29.9091 14.8954 33.4284 16.5853 36.6874C19.1903 41.7115 25.7809 47.0415 31.6615 47.0415C37.4901 47.0415 41.7373 41.1602 43.3597 36.0932C44.1386 33.6609 44.2586 31.2723 43.7164 28.9939Z" fill="#262D70"/>
</g>
<defs>
<clipPath id="clip0_28_4139">
<rect width="34" height="34" fill="white" transform="translate(13 13.0415)"/>
</clipPath>
</defs>
</svg>
