<svg width="31" height="35" viewBox="0 0 31 35" fill="none" xmlns="http://www.w3.org/2000/svg">
<path d="M22.6075 3.15613H19.2775V5.20989H21.5776V9.79663C21.5776 13.2507 18.7591 16.0606 15.2952 16.0606H14.8146C11.3504 16.0606 8.53222 13.2504 8.53222 9.79663V5.20989H10.8323V3.15613H7.50231C6.93348 3.15613 6.47241 3.61584 6.47241 4.18301V9.79663C6.47241 14.383 10.2148 18.1144 14.8146 18.1144H15.2952C19.8951 18.1144 23.6375 14.383 23.6375 9.79663V4.18301C23.6375 3.61584 23.1764 3.15613 22.6075 3.15613Z" fill="#03BBB4" stroke="#03BBB4" stroke-width="0.3"/>
<path d="M19.1727 1.68463C18.6039 1.68463 18.1428 2.14434 18.1428 2.71151V5.58678C18.1428 6.15395 18.6039 6.61367 19.1727 6.61367C19.7416 6.61367 20.2026 6.15395 20.2026 5.58678V2.71151C20.2026 2.14434 19.7416 1.68463 19.1727 1.68463Z" fill="#03BBB4" stroke="#03BBB4" stroke-width="0.3"/>
<path d="M11.0383 1.68463C10.4695 1.68463 10.0084 2.14434 10.0084 2.71151V5.58678C10.0084 6.15395 10.4695 6.61367 11.0383 6.61367C11.6072 6.61367 12.0682 6.15395 12.0682 5.58678V2.71151C12.0682 2.14434 11.6072 1.68463 11.0383 1.68463Z" fill="#03BBB4" stroke="#03BBB4" stroke-width="0.3"/>
<path d="M16.1529 22.8722V17.0532H14.0931V22.8722H10.7631C8.07502 22.8722 5.88818 25.0526 5.88818 27.7324C5.88818 30.4125 8.09046 32.5929 10.7974 32.5929H11.278C13.966 32.5929 16.1529 30.4125 16.1529 27.7324V24.9259H19.6545V22.8722H16.1529ZM14.0931 27.732C14.0931 29.2795 12.8301 30.5388 11.278 30.5388H10.7974C9.19967 30.5388 7.94799 29.3062 7.94799 27.732C7.94799 26.1845 9.211 24.9256 10.7631 24.9256H14.0931V27.732Z" fill="#03BBB4" stroke="#03BBB4" stroke-width="0.3"/>
<path d="M21.8872 20.6813C20.1082 20.6813 18.6605 22.1245 18.6605 23.8989C18.6605 25.6727 20.1079 27.1161 21.8872 27.1161C23.6665 27.1161 25.1142 25.6727 25.1142 23.8989C25.1142 22.1248 23.6668 20.6813 21.8872 20.6813ZM21.8872 25.062C21.2438 25.062 20.7203 24.54 20.7203 23.8986C20.7203 23.2568 21.2439 22.7348 21.8872 22.7348C22.5309 22.7348 23.0544 23.2568 23.0544 23.8986C23.0544 24.54 22.5309 25.062 21.8872 25.062Z" fill="#03BBB4" stroke="#03BBB4" stroke-width="0.3"/>
</svg>
