<svg width="16" height="15" viewBox="0 0 16 15" fill="none" xmlns="http://www.w3.org/2000/svg">
<path d="M12.5315 3.69784C11.1982 2.63981 9.53248 2.01027 7.762 1.96189C6.23286 1.92011 4.70865 1.35584 3.47016 0.372996C3.36915 0.292826 3.23586 0.26604 3.11177 0.300889C2.98764 0.335764 2.88781 0.428067 2.84332 0.549058L1.16753 5.1065C1.10769 5.26928 1.15901 5.45206 1.29487 5.55988C2.64548 6.6317 4.34881 7.2482 6.09111 7.29583C6.1393 7.29714 6.1874 7.29899 6.23548 7.30127C5.24639 7.58651 4.30742 8.06048 3.46847 8.72626C3.3332 8.83359 3.28167 9.01533 3.34041 9.17768L4.98941 13.7351C5.03342 13.8567 5.1332 13.9497 5.25759 13.985C5.38147 14.0201 5.51535 13.9938 5.617 13.9131C6.85546 12.9303 8.3797 12.366 9.90887 12.3242C11.6511 12.2766 13.3545 11.6601 14.7051 10.5883C14.8412 10.4803 14.8924 10.2971 14.8322 10.1342L13.1564 5.60354C13.1117 5.48276 13.0118 5.3907 12.8878 5.35598C12.7638 5.3213 12.6306 5.34816 12.5298 5.4282C12.3818 5.54563 12.2292 5.65687 12.0726 5.76195L12.6593 4.14996C12.7184 3.98745 12.6669 3.80534 12.5315 3.69784ZM6.11302 6.49255C4.64074 6.45232 3.20013 5.9618 2.02416 5.10516L3.41249 1.32959C4.69932 2.21743 6.21649 2.72354 7.74006 2.76517C9.19586 2.80495 10.6275 3.29574 11.803 4.15307L11.0014 6.35541C10.2514 6.69184 9.44513 6.90138 8.62436 6.9688C7.81669 6.67646 6.97236 6.51602 6.11302 6.49255ZM12.5882 6.38386L13.9753 10.1339C12.7994 10.9902 11.3589 11.4807 9.8869 11.5209C8.36422 11.5625 6.84799 12.068 5.56164 12.9549L4.19642 9.18181C6.02846 7.84542 7.70106 7.83909 8.59506 7.7773C8.59851 7.77708 8.60197 7.77679 8.60542 7.7765C10.0409 7.67551 11.416 7.19035 12.5882 6.38386Z" fill="#03BBB4" stroke="#03BBB4" stroke-width="0.5"/>
</svg>
