<svg width="32" height="26" viewBox="0 0 32 26" fill="none" xmlns="http://www.w3.org/2000/svg">
<path d="M26.0301 15.931C25.5411 15.5066 24.8012 15.5592 24.377 16.0479L22.8446 17.8137L22.3644 17.4317C21.8578 17.0288 21.1206 17.1128 20.7178 17.6192C20.3148 18.1257 20.3988 18.8629 20.9052 19.2658L22.2642 20.3469C22.7482 20.7294 23.4724 20.6676 23.8789 20.1979L26.1472 17.5841C26.5714 17.0953 26.5189 16.3551 26.0301 15.931C26.5189 16.3551 25.5411 15.5066 26.0301 15.931Z" fill="#03BBB4"/>
<path d="M30.7151 16.2683L29.3833 14.9003L28.8635 13.0605C28.7125 12.5289 28.242 12.1349 27.6936 12.08L25.7932 11.8878L24.2133 10.8128C23.9901 10.6614 23.7264 10.5814 23.4504 10.5814C23.1745 10.5814 22.9108 10.6614 22.6864 10.8137L21.1075 11.8877L19.2073 12.0799C18.6559 12.1358 18.1853 12.5318 18.0372 13.062L17.518 14.8995L16.1849 16.2693C15.7999 16.6657 15.6939 17.2703 15.9205 17.7732L16.7042 19.5147L16.5634 21.4184C16.5224 21.9698 16.8292 22.5018 17.3272 22.7422L19.0472 23.5729L20.162 25.12C20.4158 25.4739 20.8311 25.6852 21.2731 25.6852C21.3829 25.6852 21.4921 25.6718 21.5996 25.6447L23.4503 25.1753L25.3031 25.645C25.4088 25.6717 25.5181 25.6853 25.6281 25.6852C26.0699 25.6852 26.4852 25.4739 26.7373 25.1222L27.8541 23.5726L29.5737 22.7422C30.0729 22.5011 30.3798 21.968 30.3375 21.4189L30.1967 19.5144L30.9802 17.7733C31.2069 17.27 31.1008 16.6656 30.7151 16.2683ZM27.9889 18.7097C27.8807 18.9508 27.8276 19.2521 27.8469 19.5176L27.9508 20.9233L26.6813 21.5364C26.4407 21.6525 26.2045 21.8513 26.0521 22.0646L25.2278 23.2082L23.8599 22.8615C23.6053 22.7973 23.2967 22.797 23.0393 22.8619L21.6732 23.2083L20.8492 22.0648C20.6932 21.8483 20.4567 21.6502 20.2194 21.5364L18.9502 20.9235L19.054 19.5186C19.0737 19.2557 19.021 18.9541 18.9114 18.7085L18.3329 17.4228L19.314 16.4147C19.4996 16.2251 19.6539 15.9589 19.7271 15.7009L20.1104 14.3445L21.5121 14.2028C21.7768 14.1761 22.066 14.0708 22.2848 13.9217L23.4503 13.1289L24.616 13.9219C24.8358 14.0713 25.1249 14.1764 25.3881 14.2028L26.7907 14.3446L27.1732 15.6984C27.2447 15.9538 27.3979 16.2203 27.5848 16.4129L28.568 17.4229L27.9889 18.7097Z" fill="#03BBB4"/>
<path d="M7.72668 5.96753C7.0795 5.96753 6.55481 6.49222 6.55481 7.1394C6.55481 7.78659 7.0795 8.31128 7.72668 8.31128H18.7757C19.4229 8.31128 19.9476 7.78659 19.9476 7.1394C19.9476 6.49222 19.4229 5.96753 18.7757 5.96753H7.72668Z" fill="#03BBB4"/>
<path d="M13.8294 10.9689H7.72668C7.0795 10.9689 6.55481 11.4936 6.55481 12.1407C6.55481 12.7879 7.0795 13.3126 7.72668 13.3126H13.8294C14.4766 13.3126 15.0013 12.7879 15.0013 12.1407C15.0013 11.4936 14.4766 10.9689 13.8294 10.9689Z" fill="#03BBB4"/>
<path d="M13.2512 19.3292H4.41748C3.77131 19.3292 3.24561 18.8035 3.24561 18.1573V3.83044C3.24561 3.18427 3.77131 2.65857 4.41748 2.65857H23.8962C24.5424 2.65857 25.0681 3.18427 25.0681 3.83044V7.84388C25.0681 8.49107 25.5928 9.01575 26.24 9.01575C26.8872 9.01575 27.4119 8.49107 27.4119 7.84388V3.83044C27.4119 1.89193 25.8347 0.314819 23.8962 0.314819H4.41748C2.47896 0.314819 0.901855 1.89193 0.901855 3.83044V18.1573C0.901855 20.0958 2.47896 21.6729 4.41748 21.6729H13.2512C13.8984 21.6729 14.4231 21.1483 14.4231 20.5011C14.4231 19.8539 13.8985 19.3292 13.2512 19.3292Z" fill="#03BBB4"/>
</svg>
