<svg width="29" height="29" viewBox="0 0 29 29" fill="none" xmlns="http://www.w3.org/2000/svg">
<circle cx="14.8937" cy="14.1064" r="14.1064" fill="#262D70" fill-opacity="0.15"/>
<path d="M16.486 10.9567C16.1334 10.1474 16.3117 9.20484 16.9354 8.58024L18.3757 7.14068C18.8542 6.65651 19.5363 6.43197 20.2088 6.53724C20.8889 6.63713 21.4797 7.0576 21.7968 7.66749C22.4932 8.97804 22.6723 10.5022 22.2987 11.9385C21.3784 15.584 16.3679 20.5979 12.7231 21.5114C12.2311 21.6361 11.7255 21.6997 11.218 21.7006C10.2534 21.6999 9.30374 21.4629 8.45209 21.0101C7.40127 20.4621 6.99366 19.166 7.54168 18.1152C7.64228 17.9223 7.77162 17.7458 7.92531 17.5918L9.36487 16.1515C9.98971 15.5276 10.9325 15.3494 11.742 15.7021C12.1198 15.8649 12.4643 16.0959 12.7583 16.3835C13.1104 16.7377 14.4092 16.2247 15.7093 14.9253C17.0094 13.6259 17.521 12.3272 17.1709 11.9737C16.8821 11.6796 16.6499 11.3349 16.486 10.9567V10.9567ZM16.6876 15.903C15.1044 17.4848 12.9751 18.5515 11.7855 17.3612C11.6103 17.1934 11.406 17.0589 11.1827 16.9642C10.8959 16.842 10.5636 16.9074 10.3445 17.1292L8.90498 18.5688C8.73344 18.7384 8.65384 18.9801 8.69095 19.2185C8.72704 19.4634 8.87893 19.676 9.09901 19.7894C10.1072 20.3312 11.2838 20.4685 12.3896 20.1733C15.5214 19.3834 20.1674 14.7375 20.9572 11.6016C21.252 10.4948 21.1145 9.31732 20.5726 8.30822C20.4583 8.08937 20.2459 7.93864 20.0016 7.90294C19.9635 7.89687 19.925 7.89385 19.8863 7.89397C19.6855 7.89391 19.4931 7.9742 19.3519 8.11697L17.9124 9.55653C17.6909 9.77547 17.6254 10.1074 17.7474 10.394C17.8416 10.6188 17.9762 10.8245 18.1443 11.0009C19.3347 12.1878 18.2694 14.315 16.6876 15.903V15.903Z" fill="#262D70" stroke="#262D70" stroke-width="0.1"/>
</svg>
