<svg width="27" height="27" viewBox="0 0 27 27" fill="none" xmlns="http://www.w3.org/2000/svg">
<path d="M3.05691 23.9432H3.20691H23.7933H23.9433V23.7932V21.9376C23.9433 21.7454 23.8292 21.5532 23.6679 21.3746C23.5023 21.1912 23.2653 20.9984 22.9731 20.8033C22.3876 20.4124 21.5601 19.9986 20.58 19.6206C18.6202 18.8648 16.029 18.2442 13.501 18.2439L3.05691 23.9432ZM3.05691 23.9432V23.7932M3.05691 23.9432V23.7932M3.05691 23.7932V21.9376C3.05691 21.7454 3.17102 21.5532 3.33231 21.3746M3.05691 23.7932L3.33231 21.3746M3.33231 21.3746C3.49795 21.1912 3.7349 20.9984 4.02717 20.8033M3.33231 21.3746L4.02717 20.8033M4.02717 20.8033C4.6126 20.4124 5.44016 19.9986 6.42025 19.6206M4.02717 20.8033L6.42025 19.6206M6.42025 19.6206C8.38003 18.8648 10.9712 18.2442 13.4992 18.2439L6.42025 19.6206ZM25.4226 19.0989C26.3167 19.9242 26.8501 20.8702 26.8501 21.9376V25.3118C26.8492 25.7194 26.6868 26.1102 26.3986 26.3984C26.1102 26.6867 25.7195 26.8491 25.3117 26.85H1.68852C1.28079 26.8491 0.890003 26.6867 0.601688 26.3984C0.313375 26.1101 0.151009 25.7193 0.150122 25.3116V21.9376C0.150122 20.8702 0.683498 19.9242 1.57766 19.0989C2.47285 18.2726 3.71964 17.5774 5.11644 17.0179C7.91029 15.8988 11.2666 15.3372 13.501 15.3372L25.4226 19.0989ZM25.4226 19.0989C24.5274 18.2726 23.2806 17.5774 21.8838 17.0179C19.0899 15.8988 15.7337 15.3372 13.4992 15.3372M25.4226 19.0989L13.4992 15.3372M13.4992 15.3372V15.1872V15.3372ZM13.4992 0.15C13.4992 0.15 13.4992 0.15 13.4992 0.15C12.633 0.15 11.7752 0.320557 10.9748 0.651946C10.1739 0.983564 9.44623 1.46974 8.83327 2.08269C8.22032 2.69564 7.73415 3.42336 7.40253 4.22427C7.07091 5.02518 6.90034 5.88357 6.90058 6.75042V6.75046C6.90058 8.05598 7.28774 9.33219 8.01308 10.4177C8.73843 11.5031 9.76939 12.3491 10.9756 12.8487C12.1818 13.3482 13.509 13.4788 14.7894 13.224C16.0698 12.9691 17.2459 12.3403 18.1689 11.4171C19.0919 10.4938 19.7204 9.31753 19.9749 8.03704C20.2294 6.75656 20.0984 5.42937 19.5986 4.22333C19.0987 3.01728 18.2524 1.98655 17.1668 1.2615C16.0816 0.536784 14.8059 0.15 13.501 0.15C13.501 0.15 13.501 0.15 13.501 0.15H13.4992ZM11.4489 3.67929C12.0564 3.27342 12.7705 3.05679 13.501 3.05679C14.4807 3.05679 15.4202 3.44594 16.1129 4.13864C16.8056 4.83134 17.1947 5.77084 17.1947 6.75046C17.1947 7.481 16.9781 8.19513 16.5722 8.80255C16.1664 9.40997 15.5895 9.8834 14.9145 10.163C14.2396 10.4425 13.4969 10.5157 12.7804 10.3732C12.0639 10.2306 11.4058 9.87885 10.8892 9.36228C10.3727 8.84571 10.0209 8.18756 9.87835 7.47106C9.73582 6.75456 9.80897 6.01188 10.0885 5.33695C10.3681 4.66202 10.8415 4.08515 11.4489 3.67929Z" fill="#03BBB4" stroke="white" stroke-width="0.3"/>
</svg>
