<?xml version="1.0" encoding="utf-8"?>
<!-- Generator: Adobe Illustrator 24.0.1, SVG Export Plug-In . SVG Version: 6.00 Build 0)  -->
<svg version="1.1" id="Layer_1" xmlns="http://www.w3.org/2000/svg" xmlns:xlink="http://www.w3.org/1999/xlink" x="0px" y="0px"
	 viewBox="0 0 51 47" style="enable-background:new 0 0 51 47;" xml:space="preserve">
<style type="text/css">
	.st0{fill:#2B2979;}
</style>
<title>app doc 2</title>
<g>
	<defs>
		<rect id="SVGID_1_" x="-1699.4" y="-1490.2" width="1284.4" height="2219.2"/>
	</defs>
	<clipPath id="SVGID_2_">
		<use xlink:href="#SVGID_1_"  style="overflow:visible;"/>
	</clipPath>
</g>
<g>
	<path class="st0" d="M25.5,2.4h10.1c5.2,0,8.9,4,8.9,9.7v16.8c0,5.5-3.6,9.4-8.7,9.4c-1.4,0-2.8,0-4.1,0c-0.5,0-0.9,0.2-1.2,0.6
		c-1.6,1.7-3.1,3.5-4.7,5.2c-0.3,0.3-0.7,0.5-1.2,0.5c-0.6-0.1-0.9-0.7-0.8-1.2c0-0.2,0.1-0.4,0.3-0.6c1.9-2.2,3.8-4.3,5.7-6.4
		c0.3-0.2,0.7-0.3,1.1-0.3c2-0.1,4.1,0.1,6.1-0.2c3.1-0.4,5.4-3.3,5.4-6.7V11.7c0-4-2.8-7-6.5-7c-6.9,0-13.8,0-20.8,0
		c-3.8,0-6.5,3-6.5,7.1V29c0,4.1,2.8,7.1,6.5,7.1c1.4,0,2.9,0,4.3,0c0.5-0.1,1,0.3,1,0.8c0,0.1,0,0.2,0,0.3c-0.1,0.4-0.6,1-0.9,1
		c-2.2,0.1-4.3,0.1-6.5-0.2c-4-0.8-6.6-4.5-6.6-8.9V11.9c0-5.5,3.6-9.4,8.6-9.5C18.6,2.4,22,2.4,25.5,2.4z"/>
	<path class="st0" d="M25.5,24.4c-3.1,0-6.3,0-9.4,0c-0.5,0-1-0.2-1.3-0.6C14.4,23,15,22.2,16,22.1s2.1,0,3.2,0H35
		c0.7,0,1.2,0.3,1.2,1.2s-0.5,1-1.2,1.1s-1.4,0-2.1,0H25.5z"/>
	<path class="st0" d="M24.1,15h7.9c0.9,0,1.4,0.4,1.3,1.1c0,0.9-0.6,1.2-1.3,1.2c-5.3,0-10.6,0-15.9,0c-0.9,0-1.3-0.4-1.3-1.2
		c0.1-0.9,0.6-1.1,1.4-1.1L24.1,15z"/>
</g>
</svg>
