<svg width="29" height="30" viewBox="0 0 29 30" fill="none" xmlns="http://www.w3.org/2000/svg">
<path d="M16.6752 12.1679C17.1053 12.3244 17.5808 12.1027 17.7374 11.6726C17.8939 11.2426 17.6722 10.767 17.2421 10.6105C16.812 10.4539 16.3365 10.6757 16.1799 11.1058C16.0234 11.5358 16.2452 12.0114 16.6752 12.1679Z" fill="#03BBB4"/>
<path d="M7.89764 7.20941C7.46756 7.05289 6.99206 7.2746 6.8355 7.70468C6.67893 8.13477 6.90068 8.61033 7.33077 8.76684C7.76086 8.92335 8.23635 8.70159 8.39292 8.27156C8.54948 7.84147 8.32773 7.36592 7.89764 7.20941Z" fill="#03BBB4"/>
<path d="M23.8462 7.76827C21.0964 5.58607 17.6608 4.28764 14.0092 4.18787C10.8554 4.10169 7.71169 2.93789 5.15731 0.910766C4.94898 0.745416 4.67407 0.690171 4.41812 0.762045C4.16211 0.833975 3.95621 1.02435 3.86445 1.27389L0.408132 10.6736C0.284714 11.0093 0.390564 11.3863 0.670769 11.6087C3.45641 13.8194 6.96952 15.0909 10.563 15.1891C10.6624 15.1918 10.7616 15.1956 10.8608 15.2003C8.8208 15.7886 6.88417 16.7662 5.15383 18.1394C4.87484 18.3607 4.76854 18.7356 4.8897 19.0704L8.29077 28.4702C8.38154 28.7209 8.58733 28.9127 8.84389 28.9854C9.0994 29.0579 9.37552 29.0037 9.58517 28.8373C12.1395 26.8103 15.2832 25.6464 18.4371 25.5602C22.0306 25.462 25.5437 24.1905 28.3293 21.9798C28.61 21.7571 28.7157 21.3792 28.5914 21.0432L25.1351 11.6988C25.043 11.4497 24.837 11.2598 24.5812 11.1882C24.3254 11.1166 24.0508 11.172 23.8428 11.3371C23.5376 11.5793 23.2228 11.8088 22.8999 12.0255L24.11 8.70075C24.2318 8.36558 24.1257 7.98997 23.8462 7.76827ZM10.6082 13.5324C7.57164 13.4494 4.60038 12.4377 2.17494 10.6709L5.03836 2.88374C7.69246 4.71491 10.8216 5.75877 13.964 5.84462C16.9666 5.92666 19.9193 6.93892 22.3438 8.70716L20.6905 13.2495C19.1437 13.9434 17.4807 14.3756 15.7879 14.5146C14.122 13.9117 12.3806 13.5807 10.6082 13.5324ZM23.9632 13.3082L26.8241 21.0427C24.399 22.8088 21.4278 23.8205 18.3918 23.9034C15.2513 23.9892 12.1241 25.0318 9.47098 26.8609L6.65523 19.0789C10.4338 16.3226 13.8835 16.3096 15.7274 16.1821C15.7345 16.1817 15.7417 16.1811 15.7488 16.1805C18.7095 15.9722 21.5457 14.9715 23.9632 13.3082Z" fill="#03BBB4" stroke="#03BBB4" stroke-width="0.5"/>
<path d="M13.1361 7.35268C11.845 6.88276 10.4196 7.54714 9.94959 8.83856C9.48083 10.1267 10.1474 11.5561 11.4355 12.0249C12.7315 12.4965 14.1536 11.8257 14.6219 10.5391C15.0919 9.24798 14.4274 7.8227 13.1361 7.35268ZM13.0645 9.9722C12.9082 10.4015 12.4319 10.6239 12.0023 10.4675C11.573 10.3112 11.3507 9.83475 11.507 9.40538C11.6634 8.9759 12.1398 8.75381 12.5692 8.9101C12.9995 9.06672 13.2212 9.54178 13.0645 9.9722Z" fill="#03BBB4"/>
<path d="M11.7584 20.9816C11.3283 21.1382 11.1065 21.6137 11.2631 22.0438C11.4197 22.4739 11.8952 22.6956 12.3253 22.5391C12.7554 22.3826 12.9771 21.907 12.8205 21.4769C12.664 21.0469 12.1884 20.8251 11.7584 20.9816Z" fill="#03BBB4"/>
<path d="M21.6699 19.1381C22.1 18.9816 22.3217 18.506 22.1652 18.0759C22.0086 17.6458 21.5331 17.4241 21.103 17.5806C20.6729 17.7372 20.4511 18.2127 20.6077 18.6428C20.7642 19.0728 21.2398 19.2946 21.6699 19.1381Z" fill="#03BBB4"/>
<path d="M15.864 17.7231C14.5729 18.193 13.9082 19.6182 14.3781 20.9095C14.8481 22.2006 16.2732 22.8653 17.5646 22.3954C18.8527 21.9265 19.5193 20.4971 19.0504 19.209C18.5816 17.9207 17.152 17.2542 15.864 17.7231ZM16.9977 20.8379C16.5685 20.9942 16.0919 20.772 15.9356 20.3426C15.7789 19.9123 16.0004 19.4372 16.4309 19.2804C16.8602 19.1241 17.3367 19.3463 17.4931 19.7757C17.6494 20.2051 17.4271 20.6816 16.9977 20.8379Z" fill="#03BBB4"/>
</svg>
