<svg id="Layer_1" data-name="Layer 1" xmlns="http://www.w3.org/2000/svg" viewBox="0 0 128 128"><defs><style>.cls-1{fill:#2b2979;}.cls-2{fill:#00d2cb;fill-rule:evenodd;}</style></defs><title>app doc 2</title><path class="cls-1" d="M61.1,11.53A2.54,2.54,0,0,0,63.49,9V2.56A2.54,2.54,0,0,0,60.86,0,64.14,64.14,0,0,0,5.69,90.47a2.53,2.53,0,0,0,4.1.73l4.79-4.83a2.55,2.55,0,0,0,.56-2.75,52.66,52.66,0,0,1,46-72.09Z"/><path class="cls-2" d="M104.6,63.87A42.35,42.35,0,1,1,62.25,21.25,42.49,42.49,0,0,1,104.6,63.87Z"/><path class="cls-1" d="M127.86,67.23c-.83,4.08-2.36,11.64-2.36,11.64A63.73,63.73,0,0,1,63.61,128a63,63,0,0,1-25.09-5.18,2.56,2.56,0,0,1-.78-4.16l4.82-4.85a2.51,2.51,0,0,1,2.67-.59,51.81,51.81,0,0,0,18.37,3.35,52.36,52.36,0,0,0,52.15-50.4v-.12a2.64,2.64,0,0,1,0-.28c0-.06,0-.12,0-.18h0a2.53,2.53,0,0,1,2.49-2.08h7.21S128.69,63.15,127.86,67.23Z"/></svg>