<svg width="16" height="16" viewBox="0 0 16 16" fill="none" xmlns="http://www.w3.org/2000/svg">
<path d="M1.25 3.55H9.45081C9.46348 3.94294 9.62511 4.31714 9.90399 4.59602C10.1947 4.8867 10.5889 5.05 11 5.05H12.5C12.9111 5.05 13.3053 4.8867 13.596 4.59602C13.8749 4.31714 14.0365 3.94294 14.0492 3.55H14.75C14.9622 3.55 15.1657 3.46571 15.3157 3.31569C15.4657 3.16566 15.55 2.96217 15.55 2.75C15.55 2.53783 15.4657 2.33434 15.3157 2.18432C15.1657 2.03429 14.9622 1.95 14.75 1.95H14.0492C14.0365 1.55706 13.8749 1.18286 13.596 0.903985C13.3053 0.613303 12.9111 0.45 12.5 0.45H11C10.5889 0.45 10.1947 0.613303 9.90399 0.903985C9.62511 1.18286 9.46348 1.55706 9.45081 1.95H1.25C1.03783 1.95 0.834344 2.03429 0.684315 2.18432C0.534285 2.33434 0.45 2.53783 0.45 2.75C0.45 2.96217 0.534285 3.16566 0.684315 3.31569C0.834344 3.46571 1.03783 3.55 1.25 3.55ZM11.05 2.05H12.45V2.75V3.45H11.05V2.05ZM14.75 7.2H8.0492C8.03653 6.80706 7.87489 6.43286 7.59602 6.15399C7.30534 5.8633 6.91109 5.7 6.5 5.7H5C4.58892 5.7 4.19467 5.8633 3.90399 6.15399C3.62511 6.43286 3.46348 6.80706 3.45081 7.2H1.25C1.03783 7.2 0.834344 7.28429 0.684315 7.43432C0.534285 7.58435 0.45 7.78783 0.45 8C0.45 8.21217 0.534285 8.41566 0.684315 8.56569C0.834344 8.71572 1.03783 8.8 1.25 8.8H3.45081C3.46348 9.19294 3.62511 9.56714 3.90399 9.84602C4.19467 10.1367 4.58892 10.3 5 10.3H6.5C6.91109 10.3 7.30534 10.1367 7.59602 9.84602C7.87489 9.56714 8.03653 9.19294 8.0492 8.8H14.75C14.9622 8.8 15.1657 8.71572 15.3157 8.56569C15.4657 8.41566 15.55 8.21217 15.55 8C15.55 7.78783 15.4657 7.58435 15.3157 7.43432C15.1657 7.28429 14.9622 7.2 14.75 7.2ZM5.05 7.3H6.45V8V8.7H5.05V7.3ZM14.75 12.45H12.5492C12.5365 12.0571 12.3749 11.6829 12.096 11.404C11.8053 11.1133 11.4111 10.95 11 10.95H9.5C9.08892 10.95 8.69467 11.1133 8.40399 11.404C8.12511 11.6829 7.96348 12.0571 7.95081 12.45H1.25C1.03783 12.45 0.834344 12.5343 0.684315 12.6843C0.534285 12.8343 0.45 13.0378 0.45 13.25C0.45 13.4622 0.534285 13.6657 0.684315 13.8157C0.834344 13.9657 1.03783 14.05 1.25 14.05H7.95081C7.96348 14.4429 8.12511 14.8171 8.40399 15.096C8.69467 15.3867 9.08892 15.55 9.5 15.55H11C11.4111 15.55 11.8053 15.3867 12.096 15.096C12.3749 14.8171 12.5365 14.4429 12.5492 14.05H14.75C14.9622 14.05 15.1657 13.9657 15.3157 13.8157C15.4657 13.6657 15.55 13.4622 15.55 13.25C15.55 13.0378 15.4657 12.8343 15.3157 12.6843C15.1657 12.5343 14.9622 12.45 14.75 12.45ZM9.55 12.55H10.95V13.25V13.95H9.55V12.55Z" fill="white" stroke="white" stroke-width="0.1"/>
</svg>
