<svg width="19" height="23" viewBox="0 0 19 23" fill="none" xmlns="http://www.w3.org/2000/svg">
<path d="M12.9749 11.2785C13.9343 10.5508 14.641 9.54021 14.9954 8.38937C15.3497 7.23853 15.3339 6.00549 14.95 4.86416C14.5661 3.72283 13.8336 2.73082 12.8558 2.02807C11.8779 1.32531 10.7042 0.947266 9.5 0.947266C8.29584 0.947266 7.12207 1.32531 6.14425 2.02807C5.16643 2.73082 4.43391 3.72283 4.05003 4.86416C3.66614 6.00549 3.65025 7.23853 4.00461 8.38937C4.35897 9.54021 5.06569 10.5508 6.02508 11.2785C4.49484 11.9531 3.19351 13.0578 2.27924 14.4581C1.36497 15.8584 0.877128 17.4941 0.875 19.1665C0.875 19.929 1.1779 20.6603 1.71707 21.1994C2.25624 21.7386 2.9875 22.0415 3.75 22.0415H15.25C16.0125 22.0415 16.7438 21.7386 17.2829 21.1994C17.8221 20.6603 18.125 19.929 18.125 19.1665C18.1229 17.4941 17.635 15.8584 16.7208 14.4581C15.8065 13.0578 14.5052 11.9531 12.9749 11.2785ZM5.66667 6.70818C5.66667 5.95002 5.89149 5.20888 6.3127 4.57849C6.73391 3.94811 7.3326 3.45678 8.03305 3.16664C8.7335 2.87651 9.50425 2.80059 10.2478 2.9485C10.9914 3.09641 11.6745 3.4615 12.2106 3.9976C12.7467 4.53371 13.1118 5.21674 13.2597 5.96033C13.4076 6.70393 13.3317 7.47468 13.0415 8.17513C12.7514 8.87558 12.2601 9.47427 11.6297 9.89548C10.9993 10.3167 10.2582 10.5415 9.5 10.5415C8.48334 10.5415 7.50831 10.1376 6.78942 9.41876C6.07053 8.69987 5.66667 7.72484 5.66667 6.70818ZM15.25 20.1248H3.75C3.49583 20.1248 3.25208 20.0239 3.07236 19.8442C2.89263 19.6644 2.79167 19.4207 2.79167 19.1665C2.79167 17.3874 3.49844 15.6811 4.75649 14.423C6.01455 13.1649 7.72084 12.4582 9.5 12.4582C11.2792 12.4582 12.9854 13.1649 14.2435 14.423C15.5016 15.6811 16.2083 17.3874 16.2083 19.1665C16.2083 19.4207 16.1074 19.6644 15.9276 19.8442C15.7479 20.0239 15.5042 20.1248 15.25 20.1248Z" fill="#03BBB4"/>
</svg>
